<svg xmlns="http://www.w3.org/2000/svg" xmlns:xlink="http://www.w3.org/1999/xlink" xmlns:lucid="lucid" width="640" height="1280"><g transform="translate(-20 -21.417322834645574)" lucid:page-tab-id="0_0"><path d="M188 41.42c17.67 0 32 17.9 32 40s-14.33 40-32 40H92c-17.67 0-32-17.9-32-40s14.33-40 32-40z" stroke="#e81313" stroke-width="3" fill="#fff"/><use xlink:href="#a" transform="matrix(1,0,0,1,65,46.417322834645574) translate(51.574074074074076 39.65277777777778)"/><path d="M60 390.75a6 6 0 0 1 6-6h148a6 6 0 0 1 6 6v145.33a6 6 0 0 1-6 6H66a6 6 0 0 1-6-6z" stroke="#1071e5" stroke-width="3" fill="#fff"/><use xlink:href="#b" transform="matrix(1,0,0,1,72,396.75065616797895) translate(9.3888888888889 21.96527777777778)"/><use xlink:href="#c" transform="matrix(1,0,0,1,72,396.75065616797895) translate(95.74691358024691 21.96527777777778)"/><use xlink:href="#d" transform="matrix(1,0,0,1,72,396.75065616797895) translate(19.29629629629629 48.63194444444444)"/><use xlink:href="#e" transform="matrix(1,0,0,1,72,396.75065616797895) translate(50.77777777777778 75.29861111111111)"/><use xlink:href="#f" transform="matrix(1,0,0,1,72,396.75065616797895) translate(15.592592592592588 101.96527777777777)"/><use xlink:href="#g" transform="matrix(1,0,0,1,72,396.75065616797895) translate(32.19753086419753 128.63194444444446)"/><path d="M135.54 606.1a6.67 6.67 0 0 1 8.92 0l91.08 81.97a5.4 5.4 0 0 1 0 8.03l-91.08 81.97a6.67 6.67 0 0 1-8.92 0L44.46 696.1a5.4 5.4 0 0 1 0-8.03z" stroke="#fc9432" stroke-width="3" fill="#fff"/><use xlink:href="#h" transform="matrix(1,0,0,1,45.00000000000006,607.0839895013123) translate(59.88154320987655 60.27777777777778)"/><use xlink:href="#c" transform="matrix(1,0,0,1,45.00000000000006,607.0839895013123) translate(99.26425925925926 60.27777777777778)"/><use xlink:href="#i" transform="matrix(1,0,0,1,45.00000000000006,607.0839895013123) translate(23.52351851851852 86.94444444444446)"/><use xlink:href="#j" transform="matrix(1,0,0,1,45.00000000000006,607.0839895013123) translate(72.84450617283952 86.94444444444446)"/><use xlink:href="#k" transform="matrix(1,0,0,1,45.00000000000006,607.0839895013123) translate(119.69635802469136 86.94444444444446)"/><use xlink:href="#l" transform="matrix(1,0,0,1,45.00000000000006,607.0839895013123) translate(138.21487654320987 86.94444444444446)"/><use xlink:href="#m" transform="matrix(1,0,0,1,45.00000000000006,607.0839895013123) translate(49.97413580246914 113.61111111111111)"/><use xlink:href="#n" transform="matrix(1,0,0,1,45.00000000000006,607.0839895013123) translate(79.60376543209877 113.61111111111111)"/><path d="M140 544.05v42.46" stroke="#3a414a" fill="none"/><path d="M140.5 544.06h-1v-.5h1z" stroke="#3a414a" stroke-width=".05" fill="#3a414a"/><path d="M140 601.26L135.36 587h9.28z" stroke="#3a414a" fill="#3a414a"/><path d="M317.92 772.25l-14.14.07-.63.16-.65.27-.6.36-.54.47-.46.54-.37.6-.27.66-.16.7-.06.75-.08 29.74-.3 1.2-.44 1.08-.6 1-.78.9-.9.77-1 .6-1.08.45-1.15.28-1.1.1-32.76-.03v-3l32.64.02.76-.06.7-.17.64-.28.6-.37.54-.45.45-.54.37-.6.27-.65.16-.62.08-29.5.08-1.1.28-1.15.45-1.1.62-1 .76-.9.9-.75 1-.62 1.1-.45 1.2-.27 14.48-.08zm-176.42 33.1l.06.77.16.7.27.64.36.6.46.54.54.45.6.37.65.27.64.14 84 .05v3l-84.36-.06-1.2-.3-1.1-.44-1-.6-.9-.78-.75-.9-.62-1-.44-1.08-.27-1.15-.1-1.12v-22.7h3z" stroke="#008a0e" stroke-width=".05" fill="#008a0e"/><path d="M138.8 781.2l1.2.1 1.2-.1.3-.07v1.7h-3v-1.7z" fill="#008a0e"/><path d="M138.8 781.17l1.2.1 1.2-.1.33-.07v1.75h-3.06v-1.75zm-.28 1.63h2.95v-1.64l-.27.06-1.2.1-1.2-.1-.28-.06z" stroke="#008a0e" stroke-width=".05" fill="#008a0e"/><path d="M333.68 770.75l-14.26 4.64v-9.28z" fill="#008a0e"/><path d="M338.54 770.75l-20.62 6.7v-13.4zm-17.62 2.57l7.9-2.57-7.9-2.57z" stroke="#008a0e" stroke-width=".05" fill="#008a0e"/><use xlink:href="#o" transform="matrix(1,0,0,1,229.2271744864757,800.750656167979) translate(0 14.222222222222223)"/><path d="M290.1 687.2l-.28 1.2-.45 1.1-.6 1-.78.9-.9.76-1 .6-1.1.46-1.14.28-1.12.08h-42.4v-3h42.3l.75-.06.67-.16.66-.27.6-.38.53-.46.46-.53.37-.6.26-.66.15-.63.04-19.76h3zm27.82-64.95l-24 .07-.62.16-.66.27-.6.36-.53.47-.45.54-.37.6-.27.66-.16.7-.06.75-.02 18.95h-3l.02-19.06.1-1.12.27-1.15.45-1.1.6-1 .78-.9.9-.75 1-.62 1.1-.45 1.2-.27 24.33-.08z" stroke="#e81313" stroke-width=".05" fill="#e81313"/><path d="M240.37 693.58h-1.72l.1-.34.08-1.16-.1-1.15-.08-.35h1.72z" fill="#e81313"/><path d="M240.4 693.6h-1.8l.1-.37.1-1.15-.1-1.14-.1-.38h1.8zm-1.72-3l.08.33.1 1.15-.1 1.16-.08.32h1.67v-2.95z" stroke="#e81313" stroke-width=".05" fill="#e81313"/><path d="M333.68 620.75l-14.26 4.64v-9.28z" fill="#e81313"/><path d="M338.54 620.75l-20.62 6.7v-13.4zm-17.62 2.57l7.9-2.57-7.9-2.57z" stroke="#e81313" stroke-width=".05" fill="#e81313"/><use xlink:href="#p" transform="matrix(1,0,0,1,276.88230884909643,645.7506561679791) translate(0 14.222222222222223)"/><path d="M340 586.08a6 6 0 0 1 6-6h268a6 6 0 0 1 6 6v69.34a6 6 0 0 1-6 6H346a6 6 0 0 1-6-6z" stroke="#1071e5" stroke-width="3" fill="#fff"/><use xlink:href="#q" transform="matrix(1,0,0,1,352,592.0839895013123) translate(22.10493827160495 32.27777777777778)"/><use xlink:href="#r" transform="matrix(1,0,0,1,352,592.0839895013123) translate(89.82098765432099 32.27777777777778)"/><use xlink:href="#s" transform="matrix(1,0,0,1,352,592.0839895013123) translate(142.72222222222223 32.27777777777778)"/><use xlink:href="#t" transform="matrix(1,0,0,1,352,592.0839895013123) translate(174.75925925925924 32.27777777777778)"/><use xlink:href="#u" transform="matrix(1,0,0,1,352,592.0839895013123) translate(205.62345679012344 32.27777777777778)"/><path d="M135.3 865.17a7.5 7.5 0 0 1 9.4 0l90.6 72.5a4.8 4.8 0 0 1 0 7.5l-90.6 72.5a7.5 7.5 0 0 1-9.4 0l-90.6-72.5a4.8 4.8 0 0 1 0-7.5z" stroke="#fc9432" stroke-width="3" fill="#fff"/><use xlink:href="#h" transform="matrix(1,0,0,1,45.00000000000006,866.4173228346456) translate(59.88154320987655 50.59027777777778)"/><use xlink:href="#c" transform="matrix(1,0,0,1,45.00000000000006,866.4173228346456) translate(99.26425925925926 50.59027777777778)"/><use xlink:href="#i" transform="matrix(1,0,0,1,45.00000000000006,866.4173228346456) translate(21.6408024691358 77.25694444444446)"/><use xlink:href="#v" transform="matrix(1,0,0,1,45.00000000000006,866.4173228346456) translate(70.9617901234568 77.25694444444446)"/><use xlink:href="#w" transform="matrix(1,0,0,1,45.00000000000006,866.4173228346456) translate(146.2087037037037 77.25694444444446)"/><use xlink:href="#x" transform="matrix(1,0,0,1,45.00000000000006,866.4173228346456) translate(64.2333950617284 103.92361111111111)"/><use xlink:href="#y" transform="matrix(1,0,0,1,45.00000000000006,866.4173228346456) translate(90.09759259259259 103.92361111111111)"/><path d="M141.5 1071.4h-3v-4.32h3zm0-25.65h-3v-23.43h3z" stroke="#008a0e" stroke-width=".05" fill="#008a0e"/><path d="M138.8 1020.73l1.2.1 1.2-.1.3-.06v1.68h-3v-1.68z" fill="#008a0e"/><path d="M138.8 1020.7l1.2.1 1.2-.1.33-.06v1.74h-3.06v-1.74zm-.28 1.63h2.95v-1.62l-.26.06-1.2.08-1.2-.08-.28-.05z" stroke="#008a0e" stroke-width=".05" fill="#008a0e"/><path d="M140 1087.16l-4.64-14.26h9.28z" fill="#008a0e"/><path d="M140 1092.02l-6.7-20.62h13.4zm-2.57-17.62l2.57 7.9 2.57-7.9z" stroke="#008a0e" stroke-width=".05" fill="#008a0e"/><use xlink:href="#o" transform="matrix(1,0,0,1,124.69135802469141,1045.7506561679788) translate(0 14.222222222222223)"/><path d="M135.3 1095.17a7.5 7.5 0 0 1 9.4 0l90.6 72.5a4.8 4.8 0 0 1 0 7.5l-90.6 72.5a7.5 7.5 0 0 1-9.4 0l-90.6-72.5a4.8 4.8 0 0 1 0-7.5z" stroke="#fc9432" stroke-width="3" fill="#fff"/><use xlink:href="#h" transform="matrix(1,0,0,1,45.00000000000006,1096.4173228346456) translate(30.90006172839507 64.65277777777777)"/><use xlink:href="#z" transform="matrix(1,0,0,1,45.00000000000006,1096.4173228346456) translate(70.28277777777778 64.65277777777777)"/><use xlink:href="#A" transform="matrix(1,0,0,1,45.00000000000006,1096.4173228346456) translate(118.43092592592592 64.65277777777777)"/><use xlink:href="#B" transform="matrix(1,0,0,1,45.00000000000006,1096.4173228346456) translate(77.75191358024692 91.31944444444446)"/><path d="M340 1007.42a6 6 0 0 1 6-6h148a6 6 0 0 1 6 6v108a6 6 0 0 1-6 6H346a6 6 0 0 1-6-6z" stroke="#1071e5" stroke-width="3" fill="#fff"/><use xlink:href="#C" transform="matrix(1,0,0,1,352,1013.4173228346458) translate(11.858024691358025 38.77777777777778)"/><use xlink:href="#c" transform="matrix(1,0,0,1,352,1013.4173228346458) translate(93.27777777777777 38.77777777777778)"/><use xlink:href="#u" transform="matrix(1,0,0,1,352,1013.4173228346458) translate(53.864197530864196 65.44444444444446)"/><path d="M76.68 187.2a7.8 7.8 0 0 1 7.54-5.78H234a4.6 4.6 0 0 1 4.45 5.8l-35.13 131.73a7.8 7.8 0 0 1-7.54 5.8H46a4.6 4.6 0 0 1-4.45-5.8z" stroke="#00c2a8" stroke-width="3" fill="#fff"/><use xlink:href="#D" transform="matrix(1,0,0,1,45,186.41732283464557) translate(36.554382716049375 21.96527777777778)"/><use xlink:href="#e" transform="matrix(1,0,0,1,45,186.41732283464557) translate(145.01117283950617 21.96527777777778)"/><use xlink:href="#E" transform="matrix(1,0,0,1,45,186.41732283464557) translate(29.49265432098765 48.63194444444444)"/><use xlink:href="#F" transform="matrix(1,0,0,1,45,186.41732283464557) translate(140.4803086419753 48.63194444444444)"/><use xlink:href="#G" transform="matrix(1,0,0,1,45,186.41732283464557) translate(35.424753086419756 75.29861111111111)"/><use xlink:href="#H" transform="matrix(1,0,0,1,45,186.41732283464557) translate(113.20253086419753 75.29861111111111)"/><use xlink:href="#I" transform="matrix(1,0,0,1,45,186.41732283464557) translate(20.517345679012344 101.96527777777777)"/><use xlink:href="#J" transform="matrix(1,0,0,1,45,186.41732283464557) translate(57.55438271604938 101.96527777777777)"/><use xlink:href="#K" transform="matrix(1,0,0,1,45,186.41732283464557) translate(96.93709876543211 101.96527777777777)"/><use xlink:href="#c" transform="matrix(1,0,0,1,45,186.41732283464557) translate(121.62845679012347 101.96527777777777)"/><use xlink:href="#L" transform="matrix(1,0,0,1,45,186.41732283464557) translate(37.239567901234565 128.63194444444446)"/><path d="M140 123.42v40.16" stroke="#3a414a" fill="none"/><path d="M140.5 123.43h-1v-.5h1z" stroke="#3a414a" stroke-width=".05" fill="#3a414a"/><path d="M140 178.34l-4.64-14.26h9.28z" stroke="#3a414a" fill="#3a414a"/><path d="M140 326.7v40.2" stroke="#3a414a" fill="none"/><path d="M140.5 326.72h-1v-.5h1z" stroke="#3a414a" stroke-width=".05" fill="#3a414a"/><path d="M140 381.67l-4.64-14.27h9.28z" stroke="#3a414a" fill="#3a414a"/><path d="M290.08 1055.36l.06.76.16.7.27.64.37.6.46.54.54.45.6.37.65.27.62.14 24.1.08v3l-24.46-.08-1.2-.3-1.1-.44-1-.6-.9-.78-.75-.9-.6-1-.46-1.08-.27-1.15-.1-1.12-.02-43.4h3zM283.75 940l1.15.28 1.1.45 1 .62.9.76.75.9.62 1 .45 1.1.3 1.2.02 44.45h-3l-.03-44.1-.15-.62-.27-.65-.36-.6-.46-.54-.54-.46-.6-.37-.65-.26-.7-.16-.75-.06h-42.4v-3h42.52z" stroke="#e81313" stroke-width=".05" fill="#e81313"/><path d="M240.16 942.92h-1.74l.1-.38.1-1.12-.1-1.13-.1-.38h1.74z" fill="#e81313"/><path d="M240.2 942.94h-1.82l.12-.4.1-1.12-.1-1.12-.12-.4h1.8zm-1.75-3l.1.35.1 1.12-.1 1.13-.1.34h1.7v-2.96z" stroke="#e81313" stroke-width=".05" fill="#e81313"/><path d="M333.68 1061.42l-14.26 4.63v-9.27z" fill="#e81313"/><path d="M338.54 1061.42l-20.62 6.7v-13.4zm-17.62 2.57l7.9-2.58-7.9-2.57z" stroke="#e81313" stroke-width=".05" fill="#e81313"/><use xlink:href="#p" transform="matrix(1,0,0,1,276.77698708754446,990.7506561679791) translate(0 14.222222222222223)"/><path d="M290 1166.53l-.28 1.2-.45 1.1-.62 1-.76.9-.9.76-1 .6-1.1.45-1.15.28-1.1.1H240.1v-3h42.4l.76-.07.7-.17.64-.28.6-.37.54-.45.46-.54.36-.6.27-.65.16-.62.03-39.1h3zm27.92-103.6l-24.1.06-.63.14-.66.27-.6.38-.54.46-.46.54-.37.6-.27.65-.16.68-.06.78-.03 38.27h-3l.03-38.4.1-1.1.26-1.15.45-1.1.6-1 .77-.9.9-.75 1-.62 1.1-.45 1.2-.3 24.44-.06z" stroke="#008a0e" stroke-width=".05" fill="#008a0e"/><path d="M240.16 1172.92h-1.74l.1-.38.1-1.12-.1-1.13-.1-.38h1.74z" fill="#008a0e"/><path d="M240.2 1172.94h-1.82l.12-.4.1-1.12-.1-1.12-.12-.4h1.8zm-1.75-3l.1.35.1 1.12-.1 1.13-.1.34h1.7v-2.96z" stroke="#008a0e" stroke-width=".05" fill="#008a0e"/><path d="M333.68 1061.42l-14.26 4.63v-9.27z" fill="#008a0e"/><path d="M338.54 1061.42l-20.62 6.7v-13.4zm-17.62 2.57l7.9-2.58-7.9-2.57z" stroke="#008a0e" stroke-width=".05" fill="#008a0e"/><use xlink:href="#o" transform="matrix(1,0,0,1,273.2708142480383,1105.750656167979) translate(0 14.222222222222223)"/><path d="M340 1167.42a6 6 0 0 1 6-6h148a6 6 0 0 1 6 6v108a6 6 0 0 1-6 6H346a6 6 0 0 1-6-6z" stroke="#1071e5" stroke-width="3" fill="#fff"/><use xlink:href="#M" transform="matrix(1,0,0,1,352,1173.4173228346456) translate(11.271604938271608 38.77777777777778)"/><use xlink:href="#N" transform="matrix(1,0,0,1,352,1173.4173228346456) translate(93.86419753086419 38.77777777777778)"/><use xlink:href="#O" transform="matrix(1,0,0,1,352,1173.4173228346456) translate(53.864197530864196 65.44444444444446)"/><path d="M141.5 1275.36l.06.76.16.7.27.64.36.6.46.54.54.45.6.37.65.27.64.14 68.7.08.76-.06.7-.17.64-.28.6-.37.54-.45.46-.54.37-.6.28-.65.15-.62.02-18.06h3l-.02 18.4-.3 1.22-.44 1.08-.63 1-.76.9-.9.77-1 .6-1.08.45-1.15.28-1.1.1-69.2-.1-1.2-.28-1.08-.45-1-.6-.9-.78-.77-.9-.62-1-.44-1.08-.27-1.15-.1-1.12v-23.16h3zm176.42-52.44l-92.68.07-.63.14-.64.27-.6.38-.54.46-.46.54-.37.6-.28.65-.16.68-.06.78v9.3h-3v-9.42l.1-1.12.26-1.14.45-1.1.63-1 .76-.9.9-.75 1-.62 1.08-.45 1.2-.3 93.04-.06z" stroke="#e81313" stroke-width=".05" fill="#e81313"/><path d="M138.8 1250.73l1.2.1 1.2-.1.3-.06v1.68h-3v-1.68z" fill="#e81313"/><path d="M138.8 1250.7l1.2.1 1.2-.1.33-.06v1.74h-3.06v-1.74zm-.28 1.63h2.95v-1.62l-.26.06-1.2.08-1.2-.08-.28-.05z" stroke="#e81313" stroke-width=".05" fill="#e81313"/><path d="M333.68 1221.42l-14.26 4.63v-9.27z" fill="#e81313"/><path d="M338.54 1221.42l-20.62 6.7v-13.4zm-17.62 2.57l7.9-2.58-7.9-2.57z" stroke="#e81313" stroke-width=".05" fill="#e81313"/><g><use xlink:href="#p" transform="matrix(1,0,0,1,208.19753086419752,1236.7829704544954) translate(0 14.222222222222223)"/></g><path d="M340 707.42a6 6 0 0 1 6-6h268a6 6 0 0 1 6 6v126.66a6 6 0 0 1-6 6H346a6 6 0 0 1-6-6z" stroke="#1071e5" stroke-width="3" fill="#fff"/><g><use xlink:href="#P" transform="matrix(1,0,0,1,352,713.4173228346457) translate(14.481481481481467 21.37152777777778)"/><use xlink:href="#I" transform="matrix(1,0,0,1,352,713.4173228346457) translate(71.2716049382716 21.37152777777778)"/><use xlink:href="#Q" transform="matrix(1,0,0,1,352,713.4173228346457) translate(108.30864197530863 21.37152777777778)"/><use xlink:href="#R" transform="matrix(1,0,0,1,352,713.4173228346457) translate(162.5679012345679 21.37152777777778)"/><use xlink:href="#m" transform="matrix(1,0,0,1,352,713.4173228346457) translate(18.83333333333333 48.03819444444444)"/><use xlink:href="#k" transform="matrix(1,0,0,1,352,713.4173228346457) translate(48.46296296296296 48.03819444444444)"/><use xlink:href="#S" transform="matrix(1,0,0,1,352,713.4173228346457) translate(66.98148148148148 48.03819444444444)"/><use xlink:href="#T" transform="matrix(1,0,0,1,352,713.4173228346457) translate(101.42592592592592 48.03819444444444)"/><use xlink:href="#U" transform="matrix(1,0,0,1,352,713.4173228346457) translate(144.6358024691358 48.03819444444444)"/><use xlink:href="#V" transform="matrix(1,0,0,1,352,713.4173228346457) translate(212.4753086419753 48.03819444444444)"/><use xlink:href="#W" transform="matrix(1,0,0,1,352,713.4173228346457) translate(8.401234567901241 74.70486111111111)"/><use xlink:href="#S" transform="matrix(1,0,0,1,352,713.4173228346457) translate(76.30246913580247 74.70486111111111)"/><use xlink:href="#X" transform="matrix(1,0,0,1,352,713.4173228346457) translate(110.74691358024691 74.70486111111111)"/><use xlink:href="#I" transform="matrix(1,0,0,1,352,713.4173228346457) translate(156.30246913580245 74.70486111111111)"/><use xlink:href="#Y" transform="matrix(1,0,0,1,352,713.4173228346457) translate(193.3395061728395 74.70486111111111)"/><use xlink:href="#Z" transform="matrix(1,0,0,1,352,713.4173228346457) translate(70.00617283950618 101.37152777777777)"/><use xlink:href="#aa" transform="matrix(1,0,0,1,352,713.4173228346457) translate(124.32716049382717 101.37152777777777)"/></g><path d="M480 842.05v13.97a6 6 0 0 1-6 6H316a6 6 0 0 1-6-6v-18.6a6 6 0 0 0-6-6H146a6 6 0 0 0-6 6v8.2" stroke="#3a414a" fill="none"/><path d="M480.5 842.06h-1v-.5h1z" stroke="#3a414a" stroke-width=".05" fill="#3a414a"/><path d="M140 860.4l-4.64-14.27h9.28z" stroke="#3a414a" fill="#3a414a"/><path d="M501.96 1221.42h40.16" stroke="#3a414a" fill="none"/><path d="M501.98 1221.92h-.52v-1h.52z" stroke="#3a414a" stroke-width=".05" fill="#3a414a"/><path d="M556.88 1221.42l-14.26 4.63v-9.27z" stroke="#3a414a" fill="#3a414a"/><path d="M501.96 1061.42h40.2" stroke="#3a414a" fill="none"/><path d="M501.98 1061.92h-.52v-1h.52z" stroke="#3a414a" stroke-width=".05" fill="#3a414a"/><path d="M556.93 1061.42l-14.27 4.63v-9.27z" stroke="#3a414a" fill="#3a414a"/><path d="M468 41.42c17.67 0 32 17.9 32 40s-14.33 40-32 40h-96c-17.67 0-32-17.9-32-40s14.33-40 32-40z" stroke="#e81313" stroke-width="3" fill="#fff"/><g><use xlink:href="#ab" transform="matrix(1,0,0,1,345,46.417322834645574) translate(32.505 26.52777777777778)"/><use xlink:href="#ac" transform="matrix(1,0,0,1,345,46.417322834645574) translate(20.807469135802457 53.19444444444445)"/></g><a xlink:href="https://lucid.app/documents/edit/993f2765-d0b5-4efc-8cbd-2debdfa19477/0_0" target="_blank"><path d="M560 1028.13a6 6 0 0 1 6-6h68a6 6 0 0 1 6 6v35.15a12.35 12.35 0 0 1-4.72 9.7L604.72 1097a7.64 7.64 0 0 1-9.44 0l-30.56-24.02a12.35 12.35 0 0 1-4.72-9.7z" stroke="#fc9432" stroke-width="3" fill="#fff"/><use xlink:href="#ad" transform="matrix(1,0,0,1,565,1027.1259842519687) translate(17.751913580246914 39.34027777777778)"/><path class="lucid-link lucid-hotspot lucid-overlay-hotspot" d="M560 1028.13a6 6 0 0 1 6-6h68a6 6 0 0 1 6 6v35.15a12.35 12.35 0 0 1-4.72 9.7L604.72 1097a7.64 7.64 0 0 1-9.44 0l-30.56-24.02a12.35 12.35 0 0 1-4.72-9.7z" fill="none"/></a><a xlink:href="https://lucid.app/documents/edit/993f2765-d0b5-4efc-8cbd-2debdfa19477/0_0" target="_blank"><path d="M560 1188.13a6 6 0 0 1 6-6h68a6 6 0 0 1 6 6v35.15a12.35 12.35 0 0 1-4.72 9.7L604.72 1257a7.64 7.64 0 0 1-9.44 0l-30.56-24.02a12.35 12.35 0 0 1-4.72-9.7z" stroke="#fc9432" stroke-width="3" fill="#fff"/><use xlink:href="#ae" transform="matrix(1,0,0,1,565,1187.1259842519685) translate(17.751913580246914 39.34027777777778)"/><path class="lucid-link lucid-hotspot lucid-overlay-hotspot" d="M560 1188.13a6 6 0 0 1 6-6h68a6 6 0 0 1 6 6v35.15a12.35 12.35 0 0 1-4.72 9.7L604.72 1257a7.64 7.64 0 0 1-9.44 0l-30.56-24.02a12.35 12.35 0 0 1-4.72-9.7z" fill="none"/></a><path d="M340 366a6 6 0 0 1 6-6h148a6 6 0 0 1 6 6v108a6 6 0 0 1-6 6H346a6 6 0 0 1-6-6z" stroke="#1071e5" stroke-width="3" fill="#fff"/><g><use xlink:href="#af" transform="matrix(1,0,0,1,352,372) translate(21.148148148148152 38.77777777777778)"/><use xlink:href="#N" transform="matrix(1,0,0,1,352,372) translate(83.98765432098766 38.77777777777778)"/><use xlink:href="#ag" transform="matrix(1,0,0,1,352,372) translate(17.44444444444445 65.44444444444446)"/><use xlink:href="#O" transform="matrix(1,0,0,1,352,372) translate(90.28395061728395 65.44444444444446)"/></g><path d="M340 187.42a6 6 0 0 1 6-6h148a6 6 0 0 1 6 6v108a6 6 0 0 1-6 6H346a6 6 0 0 1-6-6z" stroke="#1071e5" stroke-width="3" fill="#fff"/><g><use xlink:href="#af" transform="matrix(1,0,0,1,352,193.41732283464557) translate(21.148148148148152 38.77777777777778)"/><use xlink:href="#N" transform="matrix(1,0,0,1,352,193.41732283464557) translate(83.98765432098766 38.77777777777778)"/><use xlink:href="#ah" transform="matrix(1,0,0,1,352,193.41732283464557) translate(26.086419753086417 65.44444444444446)"/><use xlink:href="#O" transform="matrix(1,0,0,1,352,193.41732283464557) translate(81.64197530864197 65.44444444444446)"/></g><path d="M420 358.04v-38.78" stroke="#3a414a" fill="none"/><path d="M420.5 358.54h-1v-.52h1z" stroke="#3a414a" stroke-width=".05" fill="#3a414a"/><path d="M420 304.5l4.64 14.26h-9.28z" stroke="#3a414a" fill="#3a414a"/><path d="M420 179.45V139.3" stroke="#3a414a" fill="none"/><path d="M420.5 179.95h-1v-.5h1z" stroke="#3a414a" stroke-width=".05" fill="#3a414a"/><path d="M420 124.54l4.64 14.26h-9.28z" stroke="#3a414a" fill="#3a414a"/><a xlink:href="https://lucid.app/documents/edit/993f2765-d0b5-4efc-8cbd-2debdfa19477/0_0" target="_blank"><path d="M560 446a6 6 0 0 1 6-6h68a6 6 0 0 1 6 6v35.15a12.35 12.35 0 0 1-4.72 9.7l-30.56 24.03a7.64 7.64 0 0 1-9.44 0l-30.56-24.02a12.35 12.35 0 0 1-4.72-9.7z" stroke="#fc9432" stroke-width="3" fill="#fff"/><use xlink:href="#ai" transform="matrix(1,0,0,1,565,445) translate(17.165493827160496 39.34027777777778)"/><path class="lucid-link lucid-hotspot lucid-overlay-hotspot" d="M560 446a6 6 0 0 1 6-6h68a6 6 0 0 1 6 6v35.15a12.35 12.35 0 0 1-4.72 9.7l-30.56 24.03a7.64 7.64 0 0 1-9.44 0l-30.56-24.02a12.35 12.35 0 0 1-4.72-9.7z" fill="none"/></a><path d="M558.05 478.63H536a6 6 0 0 1-6-6V426a6 6 0 0 0-6-6h-6.15" stroke="#3a414a" fill="none"/><path d="M558.55 479.13h-.52v-1h.5z" stroke="#3a414a" stroke-width=".05" fill="#3a414a"/><path d="M503.08 420l14.27-4.64v9.28z" stroke="#3a414a" fill="#3a414a"/><a xlink:href="https://lucid.app/documents/edit/993f2765-d0b5-4efc-8cbd-2debdfa19477/0_0" target="_blank"><path d="M560 326a6 6 0 0 1 6-6h68a6 6 0 0 1 6 6v35.15a12.35 12.35 0 0 1-4.72 9.7l-30.56 24.03a7.64 7.64 0 0 1-9.44 0l-30.56-24.02a12.35 12.35 0 0 1-4.72-9.7z" stroke="#fc9432" stroke-width="3" fill="#fff"/><use xlink:href="#aj" transform="matrix(1,0,0,1,565,325) translate(17.165493827160496 39.34027777777778)"/><path class="lucid-link lucid-hotspot lucid-overlay-hotspot" d="M560 326a6 6 0 0 1 6-6h68a6 6 0 0 1 6 6v35.15a12.35 12.35 0 0 1-4.72 9.7l-30.56 24.03a7.64 7.64 0 0 1-9.44 0l-30.56-24.02a12.35 12.35 0 0 1-4.72-9.7z" fill="none"/></a><path d="M558.05 358.63H536a6 6 0 0 0-6 6V414a6 6 0 0 1-6 6h-6.15" stroke="#3a414a" fill="none"/><path d="M558.55 359.13h-.52v-1h.5z" stroke="#3a414a" stroke-width=".05" fill="#3a414a"/><path d="M503.08 420l14.27-4.64v9.28z" stroke="#3a414a" fill="#3a414a"/><defs><path fill="#3a414a" d="M185-189c-5-48-123-54-124 2 14 75 158 14 163 119 3 78-121 87-175 55-17-10-28-26-33-46l33-7c5 56 141 63 141-1 0-78-155-14-162-118-5-82 145-84 179-34 5 7 8 16 11 25" id="ak"/><path fill="#3a414a" d="M59-47c-2 24 18 29 38 22v24C64 9 27 4 27-40v-127H5v-23h24l9-43h21v43h35v23H59v120" id="al"/><path fill="#3a414a" d="M141-36C126-15 110 5 73 4 37 3 15-17 15-53c-1-64 63-63 125-63 3-35-9-54-41-54-24 1-41 7-42 31l-33-3c5-37 33-52 76-52 45 0 72 20 72 64v82c-1 20 7 32 28 27v20c-31 9-61-2-59-35zM48-53c0 20 12 33 32 33 41-3 63-29 60-74-43 2-92-5-92 41" id="am"/><path fill="#3a414a" d="M114-163C36-179 61-72 57 0H25l-1-190h30c1 12-1 29 2 39 6-27 23-49 58-41v29" id="an"/><g id="a"><use transform="matrix(0.06172839506172839,0,0,0.06172839506172839,0,0)" xlink:href="#ak"/><use transform="matrix(0.06172839506172839,0,0,0.06172839506172839,14.814814814814813,0)" xlink:href="#al"/><use transform="matrix(0.06172839506172839,0,0,0.06172839506172839,20.98765432098765,0)" xlink:href="#am"/><use transform="matrix(0.06172839506172839,0,0,0.06172839506172839,33.33333333333333,0)" xlink:href="#an"/><use transform="matrix(0.06172839506172839,0,0,0.06172839506172839,40.679012345679006,0)" xlink:href="#al"/></g><path fill="#3a414a" d="M30-248c87 1 191-15 191 75 0 78-77 80-158 76V0H30v-248zm33 125c57 0 124 11 124-50 0-59-68-47-124-48v98" id="ao"/><path fill="#3a414a" d="M100-194c62-1 85 37 85 99 1 63-27 99-86 99S16-35 15-95c0-66 28-99 85-99zM99-20c44 1 53-31 53-75 0-43-8-75-51-75s-53 32-53 75 10 74 51 75" id="ap"/><path fill="#3a414a" d="M96-169c-40 0-48 33-48 73s9 75 48 75c24 0 41-14 43-38l32 2c-6 37-31 61-74 61-59 0-76-41-82-99-10-93 101-131 147-64 4 7 5 14 7 22l-32 3c-4-21-16-35-41-35" id="aq"/><path fill="#3a414a" d="M100-194c63 0 86 42 84 106H49c0 40 14 67 53 68 26 1 43-12 49-29l28 8c-11 28-37 45-77 45C44 4 14-33 15-96c1-61 26-98 85-98zm52 81c6-60-76-77-97-28-3 7-6 17-6 28h103" id="ar"/><path fill="#3a414a" d="M135-143c-3-34-86-38-87 0 15 53 115 12 119 90S17 21 10-45l28-5c4 36 97 45 98 0-10-56-113-15-118-90-4-57 82-63 122-42 12 7 21 19 24 35" id="as"/><g id="b"><use transform="matrix(0.06172839506172839,0,0,0.06172839506172839,0,0)" xlink:href="#ao"/><use transform="matrix(0.06172839506172839,0,0,0.06172839506172839,14.814814814814813,0)" xlink:href="#an"/><use transform="matrix(0.06172839506172839,0,0,0.06172839506172839,22.160493827160494,0)" xlink:href="#ap"/><use transform="matrix(0.06172839506172839,0,0,0.06172839506172839,34.50617283950617,0)" xlink:href="#aq"/><use transform="matrix(0.06172839506172839,0,0,0.06172839506172839,45.61728395061728,0)" xlink:href="#ar"/><use transform="matrix(0.06172839506172839,0,0,0.06172839506172839,57.962962962962955,0)" xlink:href="#as"/><use transform="matrix(0.06172839506172839,0,0,0.06172839506172839,69.07407407407406,0)" xlink:href="#as"/></g><path fill="#3a414a" d="M106-169C34-169 62-67 57 0H25v-261h32l-1 103c12-21 28-36 61-36 89 0 53 116 60 194h-32v-121c2-32-8-49-39-48" id="at"/><g id="c"><use transform="matrix(0.06172839506172839,0,0,0.06172839506172839,0,0)" xlink:href="#al"/><use transform="matrix(0.06172839506172839,0,0,0.06172839506172839,6.172839506172839,0)" xlink:href="#at"/><use transform="matrix(0.06172839506172839,0,0,0.06172839506172839,18.51851851851852,0)" xlink:href="#ar"/></g><path fill="#3a414a" d="M210-169c-67 3-38 105-44 169h-31v-121c0-29-5-50-35-48C34-165 62-65 56 0H25l-1-190h30c1 10-1 24 2 32 10-44 99-50 107 0 11-21 27-35 58-36 85-2 47 119 55 194h-31v-121c0-29-5-49-35-48" id="au"/><path fill="#3a414a" d="M117-194c89-4 53 116 60 194h-32v-121c0-31-8-49-39-48C34-167 62-67 57 0H25l-1-190h30c1 10-1 24 2 32 11-22 29-35 61-36" id="av"/><path fill="#3a414a" d="M85-194c31 0 48 13 60 33l-1-100h32l1 261h-30c-2-10 0-23-3-31C134-8 116 4 85 4 32 4 16-35 15-94c0-66 23-100 70-100zm9 24c-40 0-46 34-46 75 0 40 6 74 45 74 42 0 51-32 51-76 0-42-9-74-50-73" id="aw"/><g id="d"><use transform="matrix(0.06172839506172839,0,0,0.06172839506172839,0,0)" xlink:href="#aq"/><use transform="matrix(0.06172839506172839,0,0,0.06172839506172839,11.11111111111111,0)" xlink:href="#ap"/><use transform="matrix(0.06172839506172839,0,0,0.06172839506172839,23.45679012345679,0)" xlink:href="#au"/><use transform="matrix(0.06172839506172839,0,0,0.06172839506172839,41.91358024691358,0)" xlink:href="#au"/><use transform="matrix(0.06172839506172839,0,0,0.06172839506172839,60.37037037037037,0)" xlink:href="#am"/><use transform="matrix(0.06172839506172839,0,0,0.06172839506172839,72.71604938271605,0)" xlink:href="#av"/><use transform="matrix(0.06172839506172839,0,0,0.06172839506172839,85.06172839506173,0)" xlink:href="#aw"/></g><path fill="#3a414a" d="M24 0v-261h32V0H24" id="ax"/><path fill="#3a414a" d="M24-231v-30h32v30H24zM24 0v-190h32V0H24" id="ay"/><g id="e"><use transform="matrix(0.06172839506172839,0,0,0.06172839506172839,0,0)" xlink:href="#ax"/><use transform="matrix(0.06172839506172839,0,0,0.06172839506172839,4.876543209876543,0)" xlink:href="#ay"/><use transform="matrix(0.06172839506172839,0,0,0.06172839506172839,9.753086419753085,0)" xlink:href="#av"/><use transform="matrix(0.06172839506172839,0,0,0.06172839506172839,22.098765432098766,0)" xlink:href="#ar"/></g><path fill="#3a414a" d="M177-190C167-65 218 103 67 71c-23-6-38-20-44-43l32-5c15 47 100 32 89-28v-30C133-14 115 1 83 1 29 1 15-40 15-95c0-56 16-97 71-98 29-1 48 16 59 35 1-10 0-23 2-32h30zM94-22c36 0 50-32 50-73 0-42-14-75-50-75-39 0-46 34-46 75s6 73 46 73" id="az"/><path fill="#3a414a" d="M84 4C-5 8 30-112 23-190h32v120c0 31 7 50 39 49 72-2 45-101 50-169h31l1 190h-30c-1-10 1-25-2-33-11 22-28 36-60 37" id="aA"/><g id="f"><use transform="matrix(0.06172839506172839,0,0,0.06172839506172839,0,0)" xlink:href="#am"/><use transform="matrix(0.06172839506172839,0,0,0.06172839506172839,12.345679012345679,0)" xlink:href="#an"/><use transform="matrix(0.06172839506172839,0,0,0.06172839506172839,19.691358024691358,0)" xlink:href="#az"/><use transform="matrix(0.06172839506172839,0,0,0.06172839506172839,32.03703703703704,0)" xlink:href="#aA"/><use transform="matrix(0.06172839506172839,0,0,0.06172839506172839,44.382716049382715,0)" xlink:href="#au"/><use transform="matrix(0.06172839506172839,0,0,0.06172839506172839,62.839506172839506,0)" xlink:href="#ar"/><use transform="matrix(0.06172839506172839,0,0,0.06172839506172839,75.18518518518519,0)" xlink:href="#av"/><use transform="matrix(0.06172839506172839,0,0,0.06172839506172839,87.53086419753087,0)" xlink:href="#al"/><use transform="matrix(0.06172839506172839,0,0,0.06172839506172839,93.70370370370371,0)" xlink:href="#as"/></g><path fill="#3a414a" d="M115-194c55 1 70 41 70 98S169 2 115 4C84 4 66-9 55-30l1 105H24l-1-265h31l2 30c10-21 28-34 59-34zm-8 174c40 0 45-34 45-75s-6-73-45-74c-42 0-51 32-51 76 0 43 10 73 51 73" id="aB"/><g id="g"><use transform="matrix(0.06172839506172839,0,0,0.06172839506172839,0,0)" xlink:href="#aB"/><use transform="matrix(0.06172839506172839,0,0,0.06172839506172839,12.345679012345679,0)" xlink:href="#am"/><use transform="matrix(0.06172839506172839,0,0,0.06172839506172839,24.691358024691358,0)" xlink:href="#as"/><use transform="matrix(0.06172839506172839,0,0,0.06172839506172839,35.80246913580247,0)" xlink:href="#as"/><use transform="matrix(0.06172839506172839,0,0,0.06172839506172839,46.91358024691358,0)" xlink:href="#ar"/><use transform="matrix(0.06172839506172839,0,0,0.06172839506172839,59.25925925925926,0)" xlink:href="#aw"/></g><path fill="#3a414a" d="M30-248c118-7 216 8 213 122C240-48 200 0 122 0H30v-248zM63-27c89 8 146-16 146-99s-60-101-146-95v194" id="aC"/><g id="h"><use transform="matrix(0.06172839506172839,0,0,0.06172839506172839,0,0)" xlink:href="#aC"/><use transform="matrix(0.06172839506172839,0,0,0.06172839506172839,15.987654320987653,0)" xlink:href="#ay"/><use transform="matrix(0.06172839506172839,0,0,0.06172839506172839,20.864197530864196,0)" xlink:href="#aw"/></g><g id="i"><use transform="matrix(0.06172839506172839,0,0,0.06172839506172839,0,0)" xlink:href="#aA"/><use transform="matrix(0.06172839506172839,0,0,0.06172839506172839,12.345679012345679,0)" xlink:href="#as"/><use transform="matrix(0.06172839506172839,0,0,0.06172839506172839,23.45679012345679,0)" xlink:href="#ar"/><use transform="matrix(0.06172839506172839,0,0,0.06172839506172839,35.80246913580247,0)" xlink:href="#an"/></g><path fill="#3a414a" d="M108 0H70L1-190h34L89-25l56-165h34" id="aD"/><g id="j"><use transform="matrix(0.06172839506172839,0,0,0.06172839506172839,0,0)" xlink:href="#az"/><use transform="matrix(0.06172839506172839,0,0,0.06172839506172839,12.345679012345679,0)" xlink:href="#ay"/><use transform="matrix(0.06172839506172839,0,0,0.06172839506172839,17.22222222222222,0)" xlink:href="#aD"/><use transform="matrix(0.06172839506172839,0,0,0.06172839506172839,28.333333333333332,0)" xlink:href="#ar"/></g><use transform="matrix(0.06172839506172839,0,0,0.06172839506172839,0,0)" xlink:href="#am" id="k"/><path fill="#3a414a" d="M101-234c-31-9-42 10-38 44h38v23H63V0H32v-167H5v-23h27c-7-52 17-82 69-68v24" id="aE"/><g id="l"><use transform="matrix(0.06172839506172839,0,0,0.06172839506172839,0,0)" xlink:href="#aE"/><use transform="matrix(0.06172839506172839,0,0,0.06172839506172839,6.172839506172839,0)" xlink:href="#ay"/><use transform="matrix(0.06172839506172839,0,0,0.06172839506172839,11.049382716049383,0)" xlink:href="#ax"/><use transform="matrix(0.06172839506172839,0,0,0.06172839506172839,15.925925925925926,0)" xlink:href="#ar"/></g><g id="m"><use transform="matrix(0.06172839506172839,0,0,0.06172839506172839,0,0)" xlink:href="#am"/><use transform="matrix(0.06172839506172839,0,0,0.06172839506172839,12.345679012345679,0)" xlink:href="#as"/></g><path fill="#3a414a" d="M103-251c84 0 111 97 45 133-19 10-37 24-39 52H78c0-63 77-55 77-114 0-30-21-42-52-43-32 0-53 17-56 46l-32-2c7-45 34-72 88-72zM77 0v-35h34V0H77" id="aF"/><g id="n"><use transform="matrix(0.06172839506172839,0,0,0.06172839506172839,0,0)" xlink:href="#ay"/><use transform="matrix(0.06172839506172839,0,0,0.06172839506172839,4.876543209876543,0)" xlink:href="#av"/><use transform="matrix(0.06172839506172839,0,0,0.06172839506172839,17.22222222222222,0)" xlink:href="#aB"/><use transform="matrix(0.06172839506172839,0,0,0.06172839506172839,29.5679012345679,0)" xlink:href="#aA"/><use transform="matrix(0.06172839506172839,0,0,0.06172839506172839,41.913580246913575,0)" xlink:href="#al"/><use transform="matrix(0.06172839506172839,0,0,0.06172839506172839,48.08641975308642,0)" xlink:href="#aF"/></g><path fill="#333" d="M146-102V0H94v-102L6-248h54l60 105 60-105h54" id="aG"/><path fill="#333" d="M185-48c-13 30-37 53-82 52C43 2 14-33 14-96s30-98 90-98c62 0 83 45 84 108H66c0 31 8 55 39 56 18 0 30-7 34-22zm-45-69c5-46-57-63-70-21-2 6-4 13-4 21h74" id="aH"/><path fill="#333" d="M137-138c1-29-70-34-71-4 15 46 118 7 119 86 1 83-164 76-172 9l43-7c4 19 20 25 44 25 33 8 57-30 24-41C81-84 22-81 20-136c-2-80 154-74 161-7" id="aI"/><g id="o"><use transform="matrix(0.04938271604938272,0,0,0.04938271604938272,0,0)" xlink:href="#aG"/><use transform="matrix(0.04938271604938272,0,0,0.04938271604938272,10.864197530864198,0)" xlink:href="#aH"/><use transform="matrix(0.04938271604938272,0,0,0.04938271604938272,20.74074074074074,0)" xlink:href="#aI"/></g><path fill="#333" d="M175 0L67-191c6 58 2 128 3 191H24v-248h59L193-55c-6-58-2-129-3-193h46V0h-61" id="aJ"/><path fill="#333" d="M110-194c64 0 96 36 96 99 0 64-35 99-97 99-61 0-95-36-95-99 0-62 34-99 96-99zm-1 164c35 0 45-28 45-65 0-40-10-65-43-65-34 0-45 26-45 65 0 36 10 65 43 65" id="aK"/><g id="p"><use transform="matrix(0.04938271604938272,0,0,0.04938271604938272,0,0)" xlink:href="#aJ"/><use transform="matrix(0.04938271604938272,0,0,0.04938271604938272,12.790123456790125,0)" xlink:href="#aK"/></g><path fill="#3a414a" d="M127-220V0H93v-220H8v-28h204v28h-85" id="aL"/><path fill="#3a414a" d="M206 0h-36l-40-164L89 0H53L-1-190h32L70-26l43-164h34l41 164 42-164h31" id="aM"/><g id="q"><use transform="matrix(0.06172839506172839,0,0,0.06172839506172839,0,0)" xlink:href="#aL"/><use transform="matrix(0.06172839506172839,0,0,0.06172839506172839,13.518518518518517,0)" xlink:href="#at"/><use transform="matrix(0.06172839506172839,0,0,0.06172839506172839,25.864197530864196,0)" xlink:href="#an"/><use transform="matrix(0.06172839506172839,0,0,0.06172839506172839,33.20987654320987,0)" xlink:href="#ap"/><use transform="matrix(0.06172839506172839,0,0,0.06172839506172839,45.55555555555555,0)" xlink:href="#aM"/></g><g id="r"><use transform="matrix(0.06172839506172839,0,0,0.06172839506172839,0,0)" xlink:href="#ar"/><use transform="matrix(0.06172839506172839,0,0,0.06172839506172839,12.345679012345679,0)" xlink:href="#an"/><use transform="matrix(0.06172839506172839,0,0,0.06172839506172839,19.691358024691358,0)" xlink:href="#an"/><use transform="matrix(0.06172839506172839,0,0,0.06172839506172839,27.037037037037038,0)" xlink:href="#ap"/><use transform="matrix(0.06172839506172839,0,0,0.06172839506172839,39.382716049382715,0)" xlink:href="#an"/></g><g id="s"><use transform="matrix(0.06172839506172839,0,0,0.06172839506172839,0,0)" xlink:href="#aE"/><use transform="matrix(0.06172839506172839,0,0,0.06172839506172839,6.172839506172839,0)" xlink:href="#ap"/><use transform="matrix(0.06172839506172839,0,0,0.06172839506172839,18.51851851851852,0)" xlink:href="#an"/></g><g id="t"><use transform="matrix(0.06172839506172839,0,0,0.06172839506172839,0,0)" xlink:href="#av"/><use transform="matrix(0.06172839506172839,0,0,0.06172839506172839,12.345679012345679,0)" xlink:href="#ap"/></g><g id="u"><use transform="matrix(0.06172839506172839,0,0,0.06172839506172839,0,0)" xlink:href="#aE"/><use transform="matrix(0.06172839506172839,0,0,0.06172839506172839,6.172839506172839,0)" xlink:href="#ay"/><use transform="matrix(0.06172839506172839,0,0,0.06172839506172839,11.049382716049383,0)" xlink:href="#ax"/><use transform="matrix(0.06172839506172839,0,0,0.06172839506172839,15.925925925925926,0)" xlink:href="#ar"/></g><path fill="#3a414a" d="M179-190L93 31C79 59 56 82 12 73V49c39 6 53-20 64-50L1-190h34L92-34l54-156h33" id="aN"/><g id="v"><use transform="matrix(0.06172839506172839,0,0,0.06172839506172839,0,0)" xlink:href="#as"/><use transform="matrix(0.06172839506172839,0,0,0.06172839506172839,11.11111111111111,0)" xlink:href="#aB"/><use transform="matrix(0.06172839506172839,0,0,0.06172839506172839,23.45679012345679,0)" xlink:href="#ar"/><use transform="matrix(0.06172839506172839,0,0,0.06172839506172839,35.80246913580247,0)" xlink:href="#aq"/><use transform="matrix(0.06172839506172839,0,0,0.06172839506172839,46.91358024691358,0)" xlink:href="#ay"/><use transform="matrix(0.06172839506172839,0,0,0.06172839506172839,51.79012345679013,0)" xlink:href="#aE"/><use transform="matrix(0.06172839506172839,0,0,0.06172839506172839,57.96296296296297,0)" xlink:href="#aN"/></g><path fill="#3a414a" d="M16-82v-28h88v28H16" id="aO"/><path fill="#3a414a" d="M30 0v-248h187v28H63v79h144v27H63v87h162V0H30" id="aP"/><g id="w"><use transform="matrix(0.06172839506172839,0,0,0.06172839506172839,0,0)" xlink:href="#aO"/><use transform="matrix(0.06172839506172839,0,0,0.06172839506172839,7.345679012345679,0)" xlink:href="#aP"/></g><g id="x"><use transform="matrix(0.06172839506172839,0,0,0.06172839506172839,0,0)" xlink:href="#ap"/><use transform="matrix(0.06172839506172839,0,0,0.06172839506172839,12.345679012345679,0)" xlink:href="#an"/></g><g id="y"><use transform="matrix(0.06172839506172839,0,0,0.06172839506172839,0,0)" xlink:href="#aO"/><use transform="matrix(0.06172839506172839,0,0,0.06172839506172839,7.345679012345679,0)" xlink:href="#aC"/><use transform="matrix(0.06172839506172839,0,0,0.06172839506172839,23.333333333333332,0)" xlink:href="#aF"/></g><g id="z"><use transform="matrix(0.06172839506172839,0,0,0.06172839506172839,0,0)" xlink:href="#al"/><use transform="matrix(0.06172839506172839,0,0,0.06172839506172839,6.172839506172839,0)" xlink:href="#at"/><use transform="matrix(0.06172839506172839,0,0,0.06172839506172839,18.51851851851852,0)" xlink:href="#ar"/><use transform="matrix(0.06172839506172839,0,0,0.06172839506172839,30.864197530864196,0)" xlink:href="#aN"/></g><g id="A"><use transform="matrix(0.06172839506172839,0,0,0.06172839506172839,0,0)" xlink:href="#az"/><use transform="matrix(0.06172839506172839,0,0,0.06172839506172839,12.345679012345679,0)" xlink:href="#ay"/><use transform="matrix(0.06172839506172839,0,0,0.06172839506172839,17.22222222222222,0)" xlink:href="#aD"/><use transform="matrix(0.06172839506172839,0,0,0.06172839506172839,28.333333333333332,0)" xlink:href="#ar"/></g><g id="B"><use transform="matrix(0.06172839506172839,0,0,0.06172839506172839,0,0)" xlink:href="#aO"/><use transform="matrix(0.06172839506172839,0,0,0.06172839506172839,7.345679012345679,0)" xlink:href="#aP"/><use transform="matrix(0.06172839506172839,0,0,0.06172839506172839,22.160493827160494,0)" xlink:href="#aF"/></g><g id="C"><use transform="matrix(0.06172839506172839,0,0,0.06172839506172839,0,0)" xlink:href="#aP"/><use transform="matrix(0.06172839506172839,0,0,0.06172839506172839,14.814814814814813,0)" xlink:href="#av"/><use transform="matrix(0.06172839506172839,0,0,0.06172839506172839,27.160493827160494,0)" xlink:href="#aq"/><use transform="matrix(0.06172839506172839,0,0,0.06172839506172839,38.27160493827161,0)" xlink:href="#an"/><use transform="matrix(0.06172839506172839,0,0,0.06172839506172839,45.617283950617285,0)" xlink:href="#aN"/><use transform="matrix(0.06172839506172839,0,0,0.06172839506172839,56.72839506172839,0)" xlink:href="#aB"/><use transform="matrix(0.06172839506172839,0,0,0.06172839506172839,69.07407407407408,0)" xlink:href="#al"/></g><path fill="#3a414a" d="M212-179c-10-28-35-45-73-45-59 0-87 40-87 99 0 60 29 101 89 101 43 0 62-24 78-52l27 14C228-24 195 4 139 4 59 4 22-46 18-125c-6-104 99-153 187-111 19 9 31 26 39 46" id="aQ"/><g id="D"><use transform="matrix(0.06172839506172839,0,0,0.06172839506172839,0,0)" xlink:href="#aQ"/><use transform="matrix(0.06172839506172839,0,0,0.06172839506172839,15.987654320987653,0)" xlink:href="#ap"/><use transform="matrix(0.06172839506172839,0,0,0.06172839506172839,28.333333333333332,0)" xlink:href="#au"/><use transform="matrix(0.06172839506172839,0,0,0.06172839506172839,46.79012345679012,0)" xlink:href="#au"/><use transform="matrix(0.06172839506172839,0,0,0.06172839506172839,65.24691358024691,0)" xlink:href="#am"/><use transform="matrix(0.06172839506172839,0,0,0.06172839506172839,77.5925925925926,0)" xlink:href="#av"/><use transform="matrix(0.06172839506172839,0,0,0.06172839506172839,89.93827160493828,0)" xlink:href="#aw"/></g><g id="E"><use transform="matrix(0.06172839506172839,0,0,0.06172839506172839,0,0)" xlink:href="#am"/><use transform="matrix(0.06172839506172839,0,0,0.06172839506172839,12.345679012345679,0)" xlink:href="#an"/><use transform="matrix(0.06172839506172839,0,0,0.06172839506172839,19.691358024691358,0)" xlink:href="#az"/><use transform="matrix(0.06172839506172839,0,0,0.06172839506172839,32.03703703703704,0)" xlink:href="#aA"/><use transform="matrix(0.06172839506172839,0,0,0.06172839506172839,44.382716049382715,0)" xlink:href="#au"/><use transform="matrix(0.06172839506172839,0,0,0.06172839506172839,62.839506172839506,0)" xlink:href="#ar"/><use transform="matrix(0.06172839506172839,0,0,0.06172839506172839,75.18518518518519,0)" xlink:href="#av"/><use transform="matrix(0.06172839506172839,0,0,0.06172839506172839,87.53086419753087,0)" xlink:href="#al"/><use transform="matrix(0.06172839506172839,0,0,0.06172839506172839,93.70370370370371,0)" xlink:href="#as"/></g><g id="F"><use transform="matrix(0.06172839506172839,0,0,0.06172839506172839,0,0)" xlink:href="#am"/><use transform="matrix(0.06172839506172839,0,0,0.06172839506172839,12.345679012345679,0)" xlink:href="#an"/><use transform="matrix(0.06172839506172839,0,0,0.06172839506172839,19.691358024691358,0)" xlink:href="#ar"/></g><g id="G"><use transform="matrix(0.06172839506172839,0,0,0.06172839506172839,0,0)" xlink:href="#aB"/><use transform="matrix(0.06172839506172839,0,0,0.06172839506172839,12.345679012345679,0)" xlink:href="#am"/><use transform="matrix(0.06172839506172839,0,0,0.06172839506172839,24.691358024691358,0)" xlink:href="#as"/><use transform="matrix(0.06172839506172839,0,0,0.06172839506172839,35.80246913580247,0)" xlink:href="#as"/><use transform="matrix(0.06172839506172839,0,0,0.06172839506172839,46.91358024691358,0)" xlink:href="#ar"/><use transform="matrix(0.06172839506172839,0,0,0.06172839506172839,59.25925925925926,0)" xlink:href="#aw"/></g><g id="H"><use transform="matrix(0.06172839506172839,0,0,0.06172839506172839,0,0)" xlink:href="#aM"/><use transform="matrix(0.06172839506172839,0,0,0.06172839506172839,15.987654320987653,0)" xlink:href="#ay"/><use transform="matrix(0.06172839506172839,0,0,0.06172839506172839,20.864197530864196,0)" xlink:href="#al"/><use transform="matrix(0.06172839506172839,0,0,0.06172839506172839,27.037037037037035,0)" xlink:href="#at"/></g><g id="I"><use transform="matrix(0.06172839506172839,0,0,0.06172839506172839,0,0)" xlink:href="#al"/><use transform="matrix(0.06172839506172839,0,0,0.06172839506172839,6.172839506172839,0)" xlink:href="#at"/><use transform="matrix(0.06172839506172839,0,0,0.06172839506172839,18.51851851851852,0)" xlink:href="#ar"/></g><g id="J"><use transform="matrix(0.06172839506172839,0,0,0.06172839506172839,0,0)" xlink:href="#aq"/><use transform="matrix(0.06172839506172839,0,0,0.06172839506172839,11.11111111111111,0)" xlink:href="#am"/><use transform="matrix(0.06172839506172839,0,0,0.06172839506172839,23.45679012345679,0)" xlink:href="#ax"/><use transform="matrix(0.06172839506172839,0,0,0.06172839506172839,28.333333333333336,0)" xlink:href="#ax"/></g><g id="K"><use transform="matrix(0.06172839506172839,0,0,0.06172839506172839,0,0)" xlink:href="#ap"/><use transform="matrix(0.06172839506172839,0,0,0.06172839506172839,12.345679012345679,0)" xlink:href="#aE"/></g><g id="L"><use transform="matrix(0.06172839506172839,0,0,0.06172839506172839,0,0)" xlink:href="#aB"/><use transform="matrix(0.06172839506172839,0,0,0.06172839506172839,12.345679012345679,0)" xlink:href="#an"/><use transform="matrix(0.06172839506172839,0,0,0.06172839506172839,19.691358024691358,0)" xlink:href="#ap"/><use transform="matrix(0.06172839506172839,0,0,0.06172839506172839,32.03703703703704,0)" xlink:href="#az"/><use transform="matrix(0.06172839506172839,0,0,0.06172839506172839,44.382716049382715,0)" xlink:href="#an"/><use transform="matrix(0.06172839506172839,0,0,0.06172839506172839,51.72839506172839,0)" xlink:href="#am"/><use transform="matrix(0.06172839506172839,0,0,0.06172839506172839,64.07407407407408,0)" xlink:href="#au"/></g><g id="M"><use transform="matrix(0.06172839506172839,0,0,0.06172839506172839,0,0)" xlink:href="#aC"/><use transform="matrix(0.06172839506172839,0,0,0.06172839506172839,15.987654320987653,0)" xlink:href="#ar"/><use transform="matrix(0.06172839506172839,0,0,0.06172839506172839,28.333333333333332,0)" xlink:href="#aq"/><use transform="matrix(0.06172839506172839,0,0,0.06172839506172839,39.44444444444444,0)" xlink:href="#an"/><use transform="matrix(0.06172839506172839,0,0,0.06172839506172839,46.79012345679012,0)" xlink:href="#aN"/><use transform="matrix(0.06172839506172839,0,0,0.06172839506172839,57.90123456790123,0)" xlink:href="#aB"/><use transform="matrix(0.06172839506172839,0,0,0.06172839506172839,70.24691358024691,0)" xlink:href="#al"/></g><g id="N"><use transform="matrix(0.06172839506172839,0,0,0.06172839506172839,0,0)" xlink:href="#al"/><use transform="matrix(0.06172839506172839,0,0,0.06172839506172839,6.172839506172839,0)" xlink:href="#at"/><use transform="matrix(0.06172839506172839,0,0,0.06172839506172839,18.51851851851852,0)" xlink:href="#ar"/></g><g id="O"><use transform="matrix(0.06172839506172839,0,0,0.06172839506172839,0,0)" xlink:href="#aE"/><use transform="matrix(0.06172839506172839,0,0,0.06172839506172839,6.172839506172839,0)" xlink:href="#ay"/><use transform="matrix(0.06172839506172839,0,0,0.06172839506172839,11.049382716049383,0)" xlink:href="#ax"/><use transform="matrix(0.06172839506172839,0,0,0.06172839506172839,15.925925925925926,0)" xlink:href="#ar"/></g><g id="P"><use transform="matrix(0.06172839506172839,0,0,0.06172839506172839,0,0)" xlink:href="#ak"/><use transform="matrix(0.06172839506172839,0,0,0.06172839506172839,14.814814814814813,0)" xlink:href="#am"/><use transform="matrix(0.06172839506172839,0,0,0.06172839506172839,27.160493827160494,0)" xlink:href="#aD"/><use transform="matrix(0.06172839506172839,0,0,0.06172839506172839,38.27160493827161,0)" xlink:href="#ar"/></g><g id="Q"><use transform="matrix(0.06172839506172839,0,0,0.06172839506172839,0,0)" xlink:href="#ay"/><use transform="matrix(0.06172839506172839,0,0,0.06172839506172839,4.876543209876543,0)" xlink:href="#av"/><use transform="matrix(0.06172839506172839,0,0,0.06172839506172839,17.22222222222222,0)" xlink:href="#aB"/><use transform="matrix(0.06172839506172839,0,0,0.06172839506172839,29.5679012345679,0)" xlink:href="#aA"/><use transform="matrix(0.06172839506172839,0,0,0.06172839506172839,41.913580246913575,0)" xlink:href="#al"/></g><g id="R"><use transform="matrix(0.06172839506172839,0,0,0.06172839506172839,0,0)" xlink:href="#am"/><use transform="matrix(0.06172839506172839,0,0,0.06172839506172839,12.345679012345679,0)" xlink:href="#aw"/><use transform="matrix(0.06172839506172839,0,0,0.06172839506172839,24.691358024691358,0)" xlink:href="#aw"/><use transform="matrix(0.06172839506172839,0,0,0.06172839506172839,37.03703703703704,0)" xlink:href="#an"/><use transform="matrix(0.06172839506172839,0,0,0.06172839506172839,44.382716049382715,0)" xlink:href="#ar"/><use transform="matrix(0.06172839506172839,0,0,0.06172839506172839,56.72839506172839,0)" xlink:href="#as"/><use transform="matrix(0.06172839506172839,0,0,0.06172839506172839,67.8395061728395,0)" xlink:href="#as"/></g><g id="S"><use transform="matrix(0.06172839506172839,0,0,0.06172839506172839,0,0)" xlink:href="#aE"/><use transform="matrix(0.06172839506172839,0,0,0.06172839506172839,6.172839506172839,0)" xlink:href="#ay"/><use transform="matrix(0.06172839506172839,0,0,0.06172839506172839,11.049382716049383,0)" xlink:href="#ax"/><use transform="matrix(0.06172839506172839,0,0,0.06172839506172839,15.925925925925926,0)" xlink:href="#ar"/></g><g id="T"><use transform="matrix(0.06172839506172839,0,0,0.06172839506172839,0,0)" xlink:href="#am"/><use transform="matrix(0.06172839506172839,0,0,0.06172839506172839,12.345679012345679,0)" xlink:href="#av"/><use transform="matrix(0.06172839506172839,0,0,0.06172839506172839,24.691358024691358,0)" xlink:href="#aw"/></g><g id="U"><use transform="matrix(0.06172839506172839,0,0,0.06172839506172839,0,0)" xlink:href="#aq"/><use transform="matrix(0.06172839506172839,0,0,0.06172839506172839,11.11111111111111,0)" xlink:href="#an"/><use transform="matrix(0.06172839506172839,0,0,0.06172839506172839,18.45679012345679,0)" xlink:href="#ar"/><use transform="matrix(0.06172839506172839,0,0,0.06172839506172839,30.80246913580247,0)" xlink:href="#am"/><use transform="matrix(0.06172839506172839,0,0,0.06172839506172839,43.148148148148145,0)" xlink:href="#al"/><use transform="matrix(0.06172839506172839,0,0,0.06172839506172839,49.32098765432099,0)" xlink:href="#ar"/></g><g id="V"><use transform="matrix(0.06172839506172839,0,0,0.06172839506172839,0,0)" xlink:href="#am"/><use transform="matrix(0.06172839506172839,0,0,0.06172839506172839,12.345679012345679,0)" xlink:href="#av"/></g><g id="W"><use transform="matrix(0.06172839506172839,0,0,0.06172839506172839,0,0)" xlink:href="#ap"/><use transform="matrix(0.06172839506172839,0,0,0.06172839506172839,12.345679012345679,0)" xlink:href="#aA"/><use transform="matrix(0.06172839506172839,0,0,0.06172839506172839,24.691358024691358,0)" xlink:href="#al"/><use transform="matrix(0.06172839506172839,0,0,0.06172839506172839,30.864197530864196,0)" xlink:href="#aB"/><use transform="matrix(0.06172839506172839,0,0,0.06172839506172839,43.20987654320987,0)" xlink:href="#aA"/><use transform="matrix(0.06172839506172839,0,0,0.06172839506172839,55.55555555555555,0)" xlink:href="#al"/></g><g id="X"><use transform="matrix(0.06172839506172839,0,0,0.06172839506172839,0,0)" xlink:href="#aM"/><use transform="matrix(0.06172839506172839,0,0,0.06172839506172839,15.987654320987653,0)" xlink:href="#ay"/><use transform="matrix(0.06172839506172839,0,0,0.06172839506172839,20.864197530864196,0)" xlink:href="#al"/><use transform="matrix(0.06172839506172839,0,0,0.06172839506172839,27.037037037037035,0)" xlink:href="#at"/></g><g id="Y"><use transform="matrix(0.06172839506172839,0,0,0.06172839506172839,0,0)" xlink:href="#as"/><use transform="matrix(0.06172839506172839,0,0,0.06172839506172839,11.11111111111111,0)" xlink:href="#am"/><use transform="matrix(0.06172839506172839,0,0,0.06172839506172839,23.45679012345679,0)" xlink:href="#au"/><use transform="matrix(0.06172839506172839,0,0,0.06172839506172839,41.91358024691358,0)" xlink:href="#ar"/></g><path fill="#3a414a" d="M115-194c53 0 69 39 70 98 0 66-23 100-70 100C84 3 66-7 56-30L54 0H23l1-261h32v101c10-23 28-34 59-34zm-8 174c40 0 45-34 45-75 0-40-5-75-45-74-42 0-51 32-51 76 0 43 10 73 51 73" id="aR"/><g id="Z"><use transform="matrix(0.06172839506172839,0,0,0.06172839506172839,0,0)" xlink:href="#aR"/><use transform="matrix(0.06172839506172839,0,0,0.06172839506172839,12.345679012345679,0)" xlink:href="#am"/><use transform="matrix(0.06172839506172839,0,0,0.06172839506172839,24.691358024691358,0)" xlink:href="#as"/><use transform="matrix(0.06172839506172839,0,0,0.06172839506172839,35.80246913580247,0)" xlink:href="#ar"/></g><path fill="#3a414a" d="M33 0v-38h34V0H33" id="aS"/><g id="aa"><use transform="matrix(0.06172839506172839,0,0,0.06172839506172839,0,0)" xlink:href="#av"/><use transform="matrix(0.06172839506172839,0,0,0.06172839506172839,12.345679012345679,0)" xlink:href="#am"/><use transform="matrix(0.06172839506172839,0,0,0.06172839506172839,24.691358024691358,0)" xlink:href="#au"/><use transform="matrix(0.06172839506172839,0,0,0.06172839506172839,43.148148148148145,0)" xlink:href="#ar"/><use transform="matrix(0.06172839506172839,0,0,0.06172839506172839,55.49382716049382,0)" xlink:href="#aS"/></g><g id="ab"><use transform="matrix(0.06172839506172839,0,0,0.06172839506172839,0,0)" xlink:href="#ao"/><use transform="matrix(0.06172839506172839,0,0,0.06172839506172839,14.814814814814813,0)" xlink:href="#an"/><use transform="matrix(0.06172839506172839,0,0,0.06172839506172839,22.160493827160494,0)" xlink:href="#ap"/><use transform="matrix(0.06172839506172839,0,0,0.06172839506172839,34.50617283950617,0)" xlink:href="#az"/><use transform="matrix(0.06172839506172839,0,0,0.06172839506172839,46.85185185185185,0)" xlink:href="#an"/><use transform="matrix(0.06172839506172839,0,0,0.06172839506172839,54.197530864197525,0)" xlink:href="#am"/><use transform="matrix(0.06172839506172839,0,0,0.06172839506172839,66.5432098765432,0)" xlink:href="#au"/></g><g id="ac"><use transform="matrix(0.06172839506172839,0,0,0.06172839506172839,0,0)" xlink:href="#aL"/><use transform="matrix(0.06172839506172839,0,0,0.06172839506172839,11.049382716049381,0)" xlink:href="#ar"/><use transform="matrix(0.06172839506172839,0,0,0.06172839506172839,23.39506172839506,0)" xlink:href="#an"/><use transform="matrix(0.06172839506172839,0,0,0.06172839506172839,30.74074074074074,0)" xlink:href="#au"/><use transform="matrix(0.06172839506172839,0,0,0.06172839506172839,49.19753086419753,0)" xlink:href="#ay"/><use transform="matrix(0.06172839506172839,0,0,0.06172839506172839,54.074074074074076,0)" xlink:href="#av"/><use transform="matrix(0.06172839506172839,0,0,0.06172839506172839,66.41975308641976,0)" xlink:href="#am"/><use transform="matrix(0.06172839506172839,0,0,0.06172839506172839,78.76543209876544,0)" xlink:href="#al"/><use transform="matrix(0.06172839506172839,0,0,0.06172839506172839,84.93827160493828,0)" xlink:href="#ar"/><use transform="matrix(0.06172839506172839,0,0,0.06172839506172839,97.28395061728396,0)" xlink:href="#as"/></g><path fill="#3a414a" d="M205 0l-28-72H64L36 0H1l101-248h38L239 0h-34zm-38-99l-47-123c-12 45-31 82-46 123h93" id="aT"/><path fill="#3a414a" d="M101-251c82-7 93 87 43 132L82-64C71-53 59-42 53-27h129V0H18c2-99 128-94 128-182 0-28-16-43-45-43s-46 15-49 41l-32-3c6-41 34-60 81-64" id="aU"/><g id="ad"><use transform="matrix(0.06172839506172839,0,0,0.06172839506172839,0,0)" xlink:href="#aT"/><use transform="matrix(0.06172839506172839,0,0,0.06172839506172839,14.814814814814813,0)" xlink:href="#aO"/><use transform="matrix(0.06172839506172839,0,0,0.06172839506172839,22.160493827160494,0)" xlink:href="#aU"/></g><path fill="#3a414a" d="M160-131c35 5 61 23 61 61C221 17 115-2 30 0v-248c76 3 177-17 177 60 0 33-19 50-47 57zm-97-11c50-1 110 9 110-42 0-47-63-36-110-37v79zm0 115c55-2 124 14 124-45 0-56-70-42-124-44v89" id="aV"/><path fill="#3a414a" d="M126-127c33 6 58 20 58 59 0 88-139 92-164 29-3-8-5-16-6-25l32-3c6 27 21 44 54 44 32 0 52-15 52-46 0-38-36-46-79-43v-28c39 1 72-4 72-42 0-27-17-43-46-43-28 0-47 15-49 41l-32-3c6-42 35-63 81-64 48-1 79 21 79 65 0 36-21 52-52 59" id="aW"/><g id="ae"><use transform="matrix(0.06172839506172839,0,0,0.06172839506172839,0,0)" xlink:href="#aV"/><use transform="matrix(0.06172839506172839,0,0,0.06172839506172839,14.814814814814813,0)" xlink:href="#aO"/><use transform="matrix(0.06172839506172839,0,0,0.06172839506172839,22.160493827160494,0)" xlink:href="#aW"/></g><g id="af"><use transform="matrix(0.06172839506172839,0,0,0.06172839506172839,0,0)" xlink:href="#aQ"/><use transform="matrix(0.06172839506172839,0,0,0.06172839506172839,15.987654320987653,0)" xlink:href="#ax"/><use transform="matrix(0.06172839506172839,0,0,0.06172839506172839,20.864197530864196,0)" xlink:href="#ap"/><use transform="matrix(0.06172839506172839,0,0,0.06172839506172839,33.20987654320987,0)" xlink:href="#as"/><use transform="matrix(0.06172839506172839,0,0,0.06172839506172839,44.32098765432099,0)" xlink:href="#ar"/></g><path fill="#3a414a" d="M140-251c81 0 123 46 123 126C263-46 219 4 140 4 59 4 17-45 17-125s42-126 123-126zm0 227c63 0 89-41 89-101s-29-99-89-99c-61 0-89 39-89 99S79-25 140-24" id="aX"/><g id="ag"><use transform="matrix(0.06172839506172839,0,0,0.06172839506172839,0,0)" xlink:href="#aX"/><use transform="matrix(0.06172839506172839,0,0,0.06172839506172839,17.28395061728395,0)" xlink:href="#aA"/><use transform="matrix(0.06172839506172839,0,0,0.06172839506172839,29.629629629629626,0)" xlink:href="#al"/><use transform="matrix(0.06172839506172839,0,0,0.06172839506172839,35.80246913580247,0)" xlink:href="#aB"/><use transform="matrix(0.06172839506172839,0,0,0.06172839506172839,48.148148148148145,0)" xlink:href="#aA"/><use transform="matrix(0.06172839506172839,0,0,0.06172839506172839,60.49382716049382,0)" xlink:href="#al"/></g><path fill="#3a414a" d="M33 0v-248h34V0H33" id="aY"/><g id="ah"><use transform="matrix(0.06172839506172839,0,0,0.06172839506172839,0,0)" xlink:href="#aY"/><use transform="matrix(0.06172839506172839,0,0,0.06172839506172839,6.172839506172839,0)" xlink:href="#av"/><use transform="matrix(0.06172839506172839,0,0,0.06172839506172839,18.51851851851852,0)" xlink:href="#aB"/><use transform="matrix(0.06172839506172839,0,0,0.06172839506172839,30.864197530864196,0)" xlink:href="#aA"/><use transform="matrix(0.06172839506172839,0,0,0.06172839506172839,43.20987654320987,0)" xlink:href="#al"/></g><g id="ai"><use transform="matrix(0.06172839506172839,0,0,0.06172839506172839,0,0)" xlink:href="#aQ"/><use transform="matrix(0.06172839506172839,0,0,0.06172839506172839,15.987654320987653,0)" xlink:href="#aO"/><use transform="matrix(0.06172839506172839,0,0,0.06172839506172839,23.333333333333332,0)" xlink:href="#aU"/></g><g id="aj"><use transform="matrix(0.06172839506172839,0,0,0.06172839506172839,0,0)" xlink:href="#aC"/><use transform="matrix(0.06172839506172839,0,0,0.06172839506172839,15.987654320987653,0)" xlink:href="#aO"/><use transform="matrix(0.06172839506172839,0,0,0.06172839506172839,23.333333333333332,0)" xlink:href="#aW"/></g></defs></g></svg>