<svg xmlns="http://www.w3.org/2000/svg" xmlns:xlink="http://www.w3.org/1999/xlink" xmlns:lucid="lucid" width="1560" height="718.58"><g transform="translate(-80 -40.000000000000014)" lucid:page-tab-id="0_0"><path d="M240 66a6 6 0 0 1 6-6h148a6 6 0 0 1 6 6v145.33a6 6 0 0 1-6 6H246a6 6 0 0 1-6-6z" stroke="#1071e5" stroke-width="3" fill="#fff"/><use xlink:href="#a" transform="matrix(1,0,0,1,252,72.00000000000007) translate(2.5987654320987588 21.96527777777778)"/><use xlink:href="#b" transform="matrix(1,0,0,1,252,72.00000000000007) translate(58.154320987654316 21.96527777777778)"/><use xlink:href="#c" transform="matrix(1,0,0,1,252,72.00000000000007) translate(11.2716049382716 48.63194444444444)"/><use xlink:href="#d" transform="matrix(1,0,0,1,252,72.00000000000007) translate(65.59259259259258 48.63194444444444)"/><use xlink:href="#e" transform="matrix(1,0,0,1,252,72.00000000000007) translate(106.20987654320987 48.63194444444444)"/><use xlink:href="#f" transform="matrix(1,0,0,1,252,72.00000000000007) translate(52.5679012345679 75.29861111111111)"/><use xlink:href="#g" transform="matrix(1,0,0,1,252,72.00000000000007) translate(6.919753086419746 101.96527777777777)"/><use xlink:href="#h" transform="matrix(1,0,0,1,252,72.00000000000007) translate(26.73456790123457 128.63194444444446)"/><use xlink:href="#i" transform="matrix(1,0,0,1,252,72.00000000000007) translate(80.99382716049382 128.63194444444446)"/><path d="M980 84.67a6 6 0 0 1 6-6h148a6 6 0 0 1 6 6v108a6 6 0 0 1-6 6H986a6 6 0 0 1-6-6z" stroke="#1071e5" stroke-width="3" fill="#fff"/><use xlink:href="#j" transform="matrix(1,0,0,1,992,90.6666665770286) translate(15.592592592592595 26.77777777777778)"/><use xlink:href="#k" transform="matrix(1,0,0,1,992,90.6666665770286) translate(66.14814814814815 26.77777777777778)"/><use xlink:href="#l" transform="matrix(1,0,0,1,992,90.6666665770286) translate(16.24074074074074 53.44444444444445)"/><use xlink:href="#m" transform="matrix(1,0,0,1,992,90.6666665770286) translate(66.73456790123457 53.44444444444445)"/><use xlink:href="#n" transform="matrix(1,0,0,1,992,90.6666665770286) translate(11.24074074074074 80.11111111111111)"/><use xlink:href="#o" transform="matrix(1,0,0,1,992,90.6666665770286) translate(70.43827160493828 80.11111111111111)"/><use xlink:href="#p" transform="matrix(1,0,0,1,992,90.6666665770286) translate(100.0679012345679 80.11111111111111)"/><path d="M1255.2 82.27a8 8 0 0 1 9.6 0l70.4 52.8a4.5 4.5 0 0 1 0 7.2l-70.4 52.8a8 8 0 0 1-9.6 0l-70.4-52.8a4.5 4.5 0 0 1 0-7.2z" stroke="#fc9432" stroke-width="3" fill="#fff"/><use xlink:href="#q" transform="matrix(1,0,0,1,1185,83.6666665770286) translate(39.233395061728395 45.27777777777778)"/><use xlink:href="#r" transform="matrix(1,0,0,1,1185,83.6666665770286) translate(62.690185185185186 45.27777777777778)"/><use xlink:href="#s" transform="matrix(1,0,0,1,1185,83.6666665770286) translate(79.9124074074074 45.27777777777778)"/><use xlink:href="#t" transform="matrix(1,0,0,1,1185,83.6666665770286) translate(42.99882716049383 71.94444444444446)"/><path d="M1420 84.67a6 6 0 0 1 6-6h148a6 6 0 0 1 6 6v108a6 6 0 0 1-6 6h-148a6 6 0 0 1-6-6z" stroke="#1071e5" stroke-width="3" fill="#fff"/><use xlink:href="#j" transform="matrix(1,0,0,1,1432,90.6666665770286) translate(6.950617283950621 38.77777777777778)"/><use xlink:href="#r" transform="matrix(1,0,0,1,1432,90.6666665770286) translate(57.506172839506185 38.77777777777778)"/><use xlink:href="#u" transform="matrix(1,0,0,1,1432,90.6666665770286) translate(74.7283950617284 38.77777777777778)"/><use xlink:href="#v" transform="matrix(1,0,0,1,1432,90.6666665770286) translate(105.5925925925926 38.77777777777778)"/><use xlink:href="#w" transform="matrix(1,0,0,1,1432,90.6666665770286) translate(12.043209876543216 65.44444444444446)"/><use xlink:href="#x" transform="matrix(1,0,0,1,1432,90.6666665770286) translate(53.586419753086425 65.44444444444446)"/><path d="M1363.2 140.17H1340v-3h23.2zm34.72 0h-4.1v-3h4.1z" stroke="#008a0e" stroke-width=".05" fill="#008a0e"/><path d="M1340.04 140.17h-1.75l.1-.4.1-1.1-.1-1.1-.1-.4h1.74z" fill="#008a0e"/><path d="M1340.07 140.2h-1.8l.1-.43.1-1.1-.1-1.1-.1-.43h1.8zm-1.75-3l.1.35.1 1.12-.1 1.1-.1.37h1.7v-2.95z" stroke="#008a0e" stroke-width=".05" fill="#008a0e"/><path d="M1413.68 138.67l-14.26 4.63v-9.27z" fill="#008a0e"/><path d="M1418.54 138.67l-20.62 6.7v-13.4zm-17.62 2.57l7.9-2.57-7.9-2.57z" stroke="#008a0e" stroke-width=".05" fill="#008a0e"/><use xlink:href="#y" transform="matrix(1,0,0,1,1363.2129027497626,127.99999991036192) translate(0 14.222222222222223)"/><path d="M1420 254.67a6 6 0 0 1 6-6h148a6 6 0 0 1 6 6v108a6 6 0 0 1-6 6h-148a6 6 0 0 1-6-6z" stroke="#1071e5" stroke-width="3" fill="#fff"/><use xlink:href="#z" transform="matrix(1,0,0,1,1432,260.6666665770286) translate(8.216049382716044 38.77777777777778)"/><use xlink:href="#r" transform="matrix(1,0,0,1,1432,260.6666665770286) translate(92.04320987654322 38.77777777777778)"/><use xlink:href="#A" transform="matrix(1,0,0,1,1432,260.6666665770286) translate(109.26543209876544 38.77777777777778)"/><use xlink:href="#B" transform="matrix(1,0,0,1,1432,260.6666665770286) translate(45.19135802469136 65.44444444444446)"/><path d="M1397.92 307.17v3l-70.94-.04v-3zm-136.42-4.56l.06.77.16.7.27.64.36.6.46.55.54.45.6.37.65.27.64.15h38.14v3h-38.5l-1.2-.3-1.1-.45-1-.6-.9-.78-.75-.9-.62-1-.44-1.08-.27-1.16-.1-1.1V199.66h3z" stroke="#e81313" stroke-width=".05" fill="#e81313"/><path d="M1258.78 198.1l1.22.07 1.22-.08.28-.06v1.67h-3v-1.66z" fill="#e81313"/><path d="M1258.78 198.07l1.22.07 1.22-.07.3-.06v1.73h-3.05V198zm-.25 1.6h2.94v-1.6l-.25.05-1.22.07-1.22-.08-.25-.05z" stroke="#e81313" stroke-width=".05" fill="#e81313"/><path d="M1413.68 308.67l-14.26 4.63v-9.27z" fill="#e81313"/><path d="M1418.54 308.67l-20.62 6.7v-13.4zm-17.62 2.57l7.9-2.57-7.9-2.57z" stroke="#e81313" stroke-width=".05" fill="#e81313"/><use xlink:href="#C" transform="matrix(1,0,0,1,1303.377980096414,297.9999999103619) translate(0 14.222222222222223)"/><path d="M1380 446a6 6 0 0 1 6-6h228a6 6 0 0 1 6 6v108a6 6 0 0 1-6 6h-228a6 6 0 0 1-6-6z" stroke="#1071e5" stroke-width="3" fill="#fff"/><use xlink:href="#D" transform="matrix(1,0,0,1,1392,452) translate(29.327160493827165 17.77777777777778)"/><use xlink:href="#c" transform="matrix(1,0,0,1,1392,452) translate(86.73456790123458 17.77777777777778)"/><use xlink:href="#E" transform="matrix(1,0,0,1,1392,452) translate(141.05555555555557 17.77777777777778)"/><use xlink:href="#F" transform="matrix(1,0,0,1,1392,452) translate(46.33333333333333 44.44444444444444)"/><use xlink:href="#G" transform="matrix(1,0,0,1,1392,452) translate(105.53086419753086 44.44444444444444)"/><use xlink:href="#H" transform="matrix(1,0,0,1,1392,452) translate(135.1604938271605 44.44444444444444)"/><use xlink:href="#I" transform="matrix(1,0,0,1,1392,452) translate(25.34567901234567 71.11111111111111)"/><use xlink:href="#J" transform="matrix(1,0,0,1,1392,452) translate(135.09876543209876 71.11111111111111)"/><use xlink:href="#f" transform="matrix(1,0,0,1,1392,452) translate(159.79012345679013 71.11111111111111)"/><use xlink:href="#K" transform="matrix(1,0,0,1,1392,452) translate(59.91358024691358 97.77777777777777)"/><use xlink:href="#i" transform="matrix(1,0,0,1,1392,452) translate(127.81481481481481 97.77777777777777)"/><path d="M182 138.67h40.15M182 138.67h-.5" stroke="#3a414a" fill="none"/><path d="M236.92 138.67l-14.27 4.63v-9.27z" stroke="#3a414a" fill="#3a414a"/><path d="M1141.96 138.67h23.15" stroke="#3a414a" fill="none"/><path d="M1141.98 139.17h-.52v-1h.52z" stroke="#3a414a" stroke-width=".05" fill="#3a414a"/><path d="M1179.88 138.67l-14.27 4.63v-9.27z" stroke="#3a414a" fill="#3a414a"/><path d="M1500 200.63v30.2" stroke="#3a414a" fill="none"/><path d="M1500.5 200.64h-1v-.5h1z" stroke="#3a414a" stroke-width=".05" fill="#3a414a"/><path d="M1500 245.6l-4.64-14.28h9.28z" stroke="#3a414a" fill="#3a414a"/><path d="M1500 370.63v51.52" stroke="#3a414a" fill="none"/><path d="M1500.5 370.64h-1v-.5h1z" stroke="#3a414a" stroke-width=".05" fill="#3a414a"/><path d="M1500 436.92l-4.64-14.27h9.28z" stroke="#3a414a" fill="#3a414a"/><path d="M470 454.67a6 6 0 0 1 6-6h148a6 6 0 0 1 6 6v108a6 6 0 0 1-6 6H476a6 6 0 0 1-6-6z" stroke="#1071e5" stroke-width="3" fill="#fff"/><use xlink:href="#D" transform="matrix(1,0,0,1,482,460.66666666666674) translate(9.697530864197532 26.77777777777778)"/><use xlink:href="#L" transform="matrix(1,0,0,1,482,460.66666666666674) translate(67.10493827160494 26.77777777777778)"/><use xlink:href="#M" transform="matrix(1,0,0,1,482,460.66666666666674) translate(85.62345679012346 26.77777777777778)"/><use xlink:href="#d" transform="matrix(1,0,0,1,482,460.66666666666674) translate(19.913580246913583 53.44444444444445)"/><use xlink:href="#J" transform="matrix(1,0,0,1,482,460.66666666666674) translate(60.53086419753087 53.44444444444445)"/><use xlink:href="#f" transform="matrix(1,0,0,1,482,460.66666666666674) translate(85.22222222222223 53.44444444444445)"/><use xlink:href="#K" transform="matrix(1,0,0,1,482,460.66666666666674) translate(19.913580246913583 80.11111111111111)"/><use xlink:href="#i" transform="matrix(1,0,0,1,482,460.66666666666674) translate(87.81481481481481 80.11111111111111)"/><path d="M785.48 63.95a6.86 6.86 0 0 1 9.04 0l80.96 70.77a5.24 5.24 0 0 1 0 7.9l-80.96 70.76a6.86 6.86 0 0 1-9.04 0l-80.96-70.76a5.24 5.24 0 0 1 0-7.9z" stroke="#fc9432" stroke-width="3" fill="#fff"/><use xlink:href="#N" transform="matrix(1,0,0,1,705,65.00000000000001) translate(76.36302469135802 40.90277777777778)"/><use xlink:href="#O" transform="matrix(1,0,0,1,705,65.00000000000001) translate(31.94944444444445 67.56944444444446)"/><use xlink:href="#L" transform="matrix(1,0,0,1,705,65.00000000000001) translate(88.67783950617284 67.56944444444446)"/><use xlink:href="#P" transform="matrix(1,0,0,1,705,65.00000000000001) translate(107.19635802469136 67.56944444444446)"/><use xlink:href="#Q" transform="matrix(1,0,0,1,705,65.00000000000001) translate(32.59759259259259 94.23611111111111)"/><path d="M545.48 63.95a6.86 6.86 0 0 1 9.04 0l80.96 70.77a5.24 5.24 0 0 1 0 7.9l-80.96 70.76a6.86 6.86 0 0 1-9.04 0l-80.96-70.76a5.24 5.24 0 0 1 0-7.9z" stroke="#fc9432" stroke-width="3" fill="#fff"/><g><use xlink:href="#q" transform="matrix(1,0,0,1,465,65.00000000000001) translate(38.739567901234565 64.02777777777777)"/><use xlink:href="#O" transform="matrix(1,0,0,1,465,65.00000000000001) translate(62.19635802469136 64.02777777777777)"/><use xlink:href="#R" transform="matrix(1,0,0,1,465,65.00000000000001) translate(118.92475308641974 64.02777777777777)"/><use xlink:href="#S" transform="matrix(1,0,0,1,465,65.00000000000001) translate(38.18401234567902 90.69444444444446)"/><use xlink:href="#T" transform="matrix(1,0,0,1,465,65.00000000000001) translate(85.03586419753087 90.69444444444446)"/></g><path d="M401.96 138.67H444.84" stroke="#3a414a" fill="none"/><path d="M401.98 139.17h-.52v-1h.52z" stroke="#3a414a" stroke-width=".05" fill="#3a414a"/><path d="M459.6 138.67l-14.27 4.63v-9.27z" stroke="#3a414a" fill="#3a414a"/><path d="M551.5 426.58h-3V322.16h3zm0-125.76h-3v-82.74h3z" stroke="#008a0e" stroke-width=".05" fill="#008a0e"/><path d="M548.8 216.5l1.2.08 1.2-.08.3-.07v1.7h-3v-1.7z" fill="#008a0e"/><path d="M548.8 216.47l1.2.1 1.2-.1.32-.07v1.75h-3.04v-1.75zm-.27 1.63h2.95v-1.64l-.28.06-1.2.1-1.2-.1-.27-.06z" stroke="#008a0e" stroke-width=".05" fill="#008a0e"/><path d="M550 442.35l-4.64-14.27h9.28z" fill="#008a0e"/><path d="M550 447.2l-6.7-20.62h13.4zm-2.57-17.62l2.57 7.92 2.57-7.92z" stroke="#008a0e" stroke-width=".05" fill="#008a0e"/><g><use xlink:href="#y" transform="matrix(1,0,0,1,534.6913580246913,300.8241867252374) translate(0 14.222222222222223)"/></g><path d="M648.73 140.17h-8.45v-3h8.45zm31.87 0h-8.26v-3h8.26z" stroke="#e81313" stroke-width=".05" fill="#e81313"/><path d="M640.32 140.17h-1.73l.08-.36.1-1.13-.1-1.15-.1-.35h1.74z" fill="#e81313"/><path d="M640.34 140.2h-1.78l.1-.4.1-1.13-.1-1.14-.1-.4h1.78zm-1.72-3l.1.32.1 1.15-.1 1.15-.1.32h1.67v-2.95z" stroke="#e81313" stroke-width=".05" fill="#e81313"/><path d="M696.36 138.67l-14.26 4.63v-9.27z" fill="#e81313"/><path d="M701.22 138.67l-20.62 6.7v-13.4zm-17.62 2.57l7.9-2.57-7.9-2.57z" stroke="#e81313" stroke-width=".05" fill="#e81313"/><g><use xlink:href="#C" transform="matrix(1,0,0,1,648.7318684017973,127.99999991036192) translate(0 14.222222222222223)"/></g><path d="M710 454.67a6 6 0 0 1 6-6h148a6 6 0 0 1 6 6v108a6 6 0 0 1-6 6H716a6 6 0 0 1-6-6z" stroke="#1071e5" stroke-width="3" fill="#fff"/><g><use xlink:href="#D" transform="matrix(1,0,0,1,722,460.66666666666674) translate(23.864197530864196 26.77777777777778)"/><use xlink:href="#f" transform="matrix(1,0,0,1,722,460.66666666666674) translate(81.27160493827161 26.77777777777778)"/><use xlink:href="#U" transform="matrix(1,0,0,1,722,460.66666666666674) translate(4.111111111111114 53.44444444444445)"/><use xlink:href="#V" transform="matrix(1,0,0,1,722,460.66666666666674) translate(64.48148148148148 53.44444444444445)"/><use xlink:href="#A" transform="matrix(1,0,0,1,722,460.66666666666674) translate(113.37037037037037 53.44444444444445)"/><use xlink:href="#W" transform="matrix(1,0,0,1,722,460.66666666666674) translate(1.3950617283950635 80.11111111111111)"/><use xlink:href="#K" transform="matrix(1,0,0,1,722,460.66666666666674) translate(38.4320987654321 80.11111111111111)"/><use xlink:href="#i" transform="matrix(1,0,0,1,722,460.66666666666674) translate(106.33333333333333 80.11111111111111)"/></g><path d="M791.5 426.58h-3v-84.02h3zm0-105.35h-3V218.08h3z" stroke="#008a0e" stroke-width=".05" fill="#008a0e"/><path d="M788.8 216.5l1.2.08 1.2-.08.3-.07v1.7h-3v-1.7z" fill="#008a0e"/><path d="M788.8 216.47l1.2.1 1.2-.1.32-.07v1.75h-3.04v-1.75zm-.27 1.63h2.95v-1.64l-.28.06-1.2.1-1.2-.1-.27-.06z" stroke="#008a0e" stroke-width=".05" fill="#008a0e"/><path d="M790 442.35l-4.64-14.27h9.28z" fill="#008a0e"/><path d="M790 447.2l-6.7-20.62h13.4zm-2.57-17.62l2.57 7.92 2.57-7.92z" stroke="#008a0e" stroke-width=".05" fill="#008a0e"/><g><use xlink:href="#y" transform="matrix(1,0,0,1,774.6913580246913,321.2273246775581) translate(0 14.222222222222223)"/></g><path d="M916.86 140.17h-36.58v-3h36.58zm41.06 0h-17.46v-3h17.46z" stroke="#e81313" stroke-width=".05" fill="#e81313"/><path d="M880.32 140.17h-1.73l.08-.36.1-1.13-.1-1.15-.1-.35h1.74z" fill="#e81313"/><path d="M880.34 140.2h-1.78l.1-.4.1-1.13-.1-1.14-.1-.4h1.78zm-1.72-3l.1.32.1 1.15-.1 1.15-.1.32h1.67v-2.95z" stroke="#e81313" stroke-width=".05" fill="#e81313"/><path d="M973.68 138.67l-14.26 4.63v-9.27z" fill="#e81313"/><path d="M978.54 138.67l-20.62 6.7v-13.4zm-17.62 2.57l7.9-2.57-7.9-2.57z" stroke="#e81313" stroke-width=".05" fill="#e81313"/><g><use xlink:href="#C" transform="matrix(1,0,0,1,916.8563222637348,127.9999999103619) translate(0 14.222222222222223)"/></g><path d="M790 570.63v37.7a6 6 0 0 0 6 6h698a6 6 0 0 1 6 6v21.82" stroke="#3a414a" fill="none"/><path d="M790.5 570.64h-1v-.5h1z" stroke="#3a414a" stroke-width=".05" fill="#3a414a"/><path d="M1500 656.92l-4.64-14.27h9.28z" stroke="#3a414a" fill="#3a414a"/><path d="M550 570.63v37.7a6 6 0 0 0 6 6h938a6 6 0 0 1 6 6v21.82" stroke="#3a414a" fill="none"/><path d="M550.5 570.64h-1v-.5h1z" stroke="#3a414a" stroke-width=".05" fill="#3a414a"/><path d="M1500 656.92l-4.64-14.27h9.28z" stroke="#3a414a" fill="#3a414a"/><path d="M1500 561.96v80.2" stroke="#3a414a" fill="none"/><path d="M1500.5 561.98h-1v-.52h1z" stroke="#3a414a" stroke-width=".05" fill="#3a414a"/><path d="M1500 656.92l-4.64-14.27h9.28z" stroke="#3a414a" fill="#3a414a"/><a xlink:href="https://lucid.app/documents/edit/d356f7fb-35b6-4489-b29e-51b6cadb82f0/0_0" target="_blank"><path d="M100 105.38a6 6 0 0 1 6-6h68a6 6 0 0 1 6 6v35.14a12.35 12.35 0 0 1-4.72 9.7l-30.56 24.03a7.64 7.64 0 0 1-9.44 0l-30.56-24.02a12.35 12.35 0 0 1-4.72-9.7z" stroke="#fc9432" stroke-width="3" fill="#fff"/><use xlink:href="#X" transform="matrix(1,0,0,1,105,104.37532808398964) translate(17.751913580246914 39.34027777777778)"/><path class="lucid-link lucid-hotspot lucid-overlay-hotspot" d="M100 105.38a6 6 0 0 1 6-6h68a6 6 0 0 1 6 6v35.14a12.35 12.35 0 0 1-4.72 9.7l-30.56 24.03a7.64 7.64 0 0 1-9.44 0l-30.56-24.02a12.35 12.35 0 0 1-4.72-9.7z" fill="none"/></a><a xlink:href="https://lucid.app/documents/edit/d356f7fb-35b6-4489-b29e-51b6cadb82f0/0_0" target="_blank"><path d="M1460 666a6 6 0 0 1 6-6h68a6 6 0 0 1 6 6v35.15a12.35 12.35 0 0 1-4.72 9.7l-30.56 24.03a7.64 7.64 0 0 1-9.44 0l-30.56-24.02a12.35 12.35 0 0 1-4.72-9.7z" stroke="#fc9432" stroke-width="3" fill="#fff"/><use xlink:href="#Y" transform="matrix(1,0,0,1,1465,665) translate(17.165493827160496 39.34027777777778)"/><path class="lucid-link lucid-hotspot lucid-overlay-hotspot" d="M1460 666a6 6 0 0 1 6-6h68a6 6 0 0 1 6 6v35.15a12.35 12.35 0 0 1-4.72 9.7l-30.56 24.03a7.64 7.64 0 0 1-9.44 0l-30.56-24.02a12.35 12.35 0 0 1-4.72-9.7z" fill="none"/></a><defs><path fill="#3a414a" d="M30 0v-248h33v221h125V0H30" id="Z"/><path fill="#3a414a" d="M100-194c62-1 85 37 85 99 1 63-27 99-86 99S16-35 15-95c0-66 28-99 85-99zM99-20c44 1 53-31 53-75 0-43-8-75-51-75s-53 32-53 75 10 74 51 75" id="aa"/><path fill="#3a414a" d="M115-194c55 1 70 41 70 98S169 2 115 4C84 4 66-9 55-30l1 105H24l-1-265h31l2 30c10-21 28-34 59-34zm-8 174c40 0 45-34 45-75s-6-73-45-74c-42 0-51 32-51 76 0 43 10 73 51 73" id="ab"/><g id="a"><use transform="matrix(0.06172839506172839,0,0,0.06172839506172839,0,0)" xlink:href="#Z"/><use transform="matrix(0.06172839506172839,0,0,0.06172839506172839,12.345679012345679,0)" xlink:href="#aa"/><use transform="matrix(0.06172839506172839,0,0,0.06172839506172839,24.691358024691358,0)" xlink:href="#aa"/><use transform="matrix(0.06172839506172839,0,0,0.06172839506172839,37.03703703703704,0)" xlink:href="#ab"/></g><path fill="#3a414a" d="M59-47c-2 24 18 29 38 22v24C64 9 27 4 27-40v-127H5v-23h24l9-43h21v43h35v23H59v120" id="ac"/><path fill="#3a414a" d="M106-169C34-169 62-67 57 0H25v-261h32l-1 103c12-21 28-36 61-36 89 0 53 116 60 194h-32v-121c2-32-8-49-39-48" id="ad"/><path fill="#3a414a" d="M114-163C36-179 61-72 57 0H25l-1-190h30c1 12-1 29 2 39 6-27 23-49 58-41v29" id="ae"/><path fill="#3a414a" d="M84 4C-5 8 30-112 23-190h32v120c0 31 7 50 39 49 72-2 45-101 50-169h31l1 190h-30c-1-10 1-25-2-33-11 22-28 36-60 37" id="af"/><path fill="#3a414a" d="M177-190C167-65 218 103 67 71c-23-6-38-20-44-43l32-5c15 47 100 32 89-28v-30C133-14 115 1 83 1 29 1 15-40 15-95c0-56 16-97 71-98 29-1 48 16 59 35 1-10 0-23 2-32h30zM94-22c36 0 50-32 50-73 0-42-14-75-50-75-39 0-46 34-46 75s6 73 46 73" id="ag"/><g id="b"><use transform="matrix(0.06172839506172839,0,0,0.06172839506172839,0,0)" xlink:href="#ac"/><use transform="matrix(0.06172839506172839,0,0,0.06172839506172839,6.172839506172839,0)" xlink:href="#ad"/><use transform="matrix(0.06172839506172839,0,0,0.06172839506172839,18.51851851851852,0)" xlink:href="#ae"/><use transform="matrix(0.06172839506172839,0,0,0.06172839506172839,25.864197530864196,0)" xlink:href="#aa"/><use transform="matrix(0.06172839506172839,0,0,0.06172839506172839,38.20987654320987,0)" xlink:href="#af"/><use transform="matrix(0.06172839506172839,0,0,0.06172839506172839,50.55555555555555,0)" xlink:href="#ag"/><use transform="matrix(0.06172839506172839,0,0,0.06172839506172839,62.90123456790123,0)" xlink:href="#ad"/></g><path fill="#3a414a" d="M100-194c63 0 86 42 84 106H49c0 40 14 67 53 68 26 1 43-12 49-29l28 8c-11 28-37 45-77 45C44 4 14-33 15-96c1-61 26-98 85-98zm52 81c6-60-76-77-97-28-3 7-6 17-6 28h103" id="ah"/><path fill="#3a414a" d="M141-36C126-15 110 5 73 4 37 3 15-17 15-53c-1-64 63-63 125-63 3-35-9-54-41-54-24 1-41 7-42 31l-33-3c5-37 33-52 76-52 45 0 72 20 72 64v82c-1 20 7 32 28 27v20c-31 9-61-2-59-35zM48-53c0 20 12 33 32 33 41-3 63-29 60-74-43 2-92-5-92 41" id="ai"/><path fill="#3a414a" d="M96-169c-40 0-48 33-48 73s9 75 48 75c24 0 41-14 43-38l32 2c-6 37-31 61-74 61-59 0-76-41-82-99-10-93 101-131 147-64 4 7 5 14 7 22l-32 3c-4-21-16-35-41-35" id="aj"/><g id="c"><use transform="matrix(0.06172839506172839,0,0,0.06172839506172839,0,0)" xlink:href="#ah"/><use transform="matrix(0.06172839506172839,0,0,0.06172839506172839,12.345679012345679,0)" xlink:href="#ai"/><use transform="matrix(0.06172839506172839,0,0,0.06172839506172839,24.691358024691358,0)" xlink:href="#aj"/><use transform="matrix(0.06172839506172839,0,0,0.06172839506172839,35.80246913580247,0)" xlink:href="#ad"/></g><path fill="#3a414a" d="M24 0v-261h32V0H24" id="ak"/><path fill="#3a414a" d="M24-231v-30h32v30H24zM24 0v-190h32V0H24" id="al"/><path fill="#3a414a" d="M117-194c89-4 53 116 60 194h-32v-121c0-31-8-49-39-48C34-167 62-67 57 0H25l-1-190h30c1 10-1 24 2 32 11-22 29-35 61-36" id="am"/><g id="d"><use transform="matrix(0.06172839506172839,0,0,0.06172839506172839,0,0)" xlink:href="#ak"/><use transform="matrix(0.06172839506172839,0,0,0.06172839506172839,4.876543209876543,0)" xlink:href="#al"/><use transform="matrix(0.06172839506172839,0,0,0.06172839506172839,9.753086419753085,0)" xlink:href="#am"/><use transform="matrix(0.06172839506172839,0,0,0.06172839506172839,22.098765432098766,0)" xlink:href="#ah"/></g><path fill="#3a414a" d="M101-234c-31-9-42 10-38 44h38v23H63V0H32v-167H5v-23h27c-7-52 17-82 69-68v24" id="an"/><g id="e"><use transform="matrix(0.06172839506172839,0,0,0.06172839506172839,0,0)" xlink:href="#aa"/><use transform="matrix(0.06172839506172839,0,0,0.06172839506172839,12.345679012345679,0)" xlink:href="#an"/></g><g id="f"><use transform="matrix(0.06172839506172839,0,0,0.06172839506172839,0,0)" xlink:href="#ac"/><use transform="matrix(0.06172839506172839,0,0,0.06172839506172839,6.172839506172839,0)" xlink:href="#ad"/><use transform="matrix(0.06172839506172839,0,0,0.06172839506172839,18.51851851851852,0)" xlink:href="#ah"/></g><path fill="#3a414a" d="M179-190L93 31C79 59 56 82 12 73V49c39 6 53-20 64-50L1-190h34L92-34l54-156h33" id="ao"/><path fill="#3a414a" d="M85-194c31 0 48 13 60 33l-1-100h32l1 261h-30c-2-10 0-23-3-31C134-8 116 4 85 4 32 4 16-35 15-94c0-66 23-100 70-100zm9 24c-40 0-46 34-46 75 0 40 6 74 45 74 42 0 51-32 51-76 0-42-9-74-50-73" id="ap"/><g id="g"><use transform="matrix(0.06172839506172839,0,0,0.06172839506172839,0,0)" xlink:href="#af"/><use transform="matrix(0.06172839506172839,0,0,0.06172839506172839,12.345679012345679,0)" xlink:href="#am"/><use transform="matrix(0.06172839506172839,0,0,0.06172839506172839,24.691358024691358,0)" xlink:href="#ah"/><use transform="matrix(0.06172839506172839,0,0,0.06172839506172839,37.03703703703704,0)" xlink:href="#am"/><use transform="matrix(0.06172839506172839,0,0,0.06172839506172839,49.382716049382715,0)" xlink:href="#aj"/><use transform="matrix(0.06172839506172839,0,0,0.06172839506172839,60.49382716049382,0)" xlink:href="#ae"/><use transform="matrix(0.06172839506172839,0,0,0.06172839506172839,67.8395061728395,0)" xlink:href="#ao"/><use transform="matrix(0.06172839506172839,0,0,0.06172839506172839,78.95061728395062,0)" xlink:href="#ab"/><use transform="matrix(0.06172839506172839,0,0,0.06172839506172839,91.2962962962963,0)" xlink:href="#ac"/><use transform="matrix(0.06172839506172839,0,0,0.06172839506172839,97.46913580246914,0)" xlink:href="#ah"/><use transform="matrix(0.06172839506172839,0,0,0.06172839506172839,109.81481481481482,0)" xlink:href="#ap"/></g><g id="h"><use transform="matrix(0.06172839506172839,0,0,0.06172839506172839,0,0)" xlink:href="#al"/><use transform="matrix(0.06172839506172839,0,0,0.06172839506172839,4.876543209876543,0)" xlink:href="#am"/><use transform="matrix(0.06172839506172839,0,0,0.06172839506172839,17.22222222222222,0)" xlink:href="#ab"/><use transform="matrix(0.06172839506172839,0,0,0.06172839506172839,29.5679012345679,0)" xlink:href="#af"/><use transform="matrix(0.06172839506172839,0,0,0.06172839506172839,41.913580246913575,0)" xlink:href="#ac"/></g><g id="i"><use transform="matrix(0.06172839506172839,0,0,0.06172839506172839,0,0)" xlink:href="#an"/><use transform="matrix(0.06172839506172839,0,0,0.06172839506172839,6.172839506172839,0)" xlink:href="#al"/><use transform="matrix(0.06172839506172839,0,0,0.06172839506172839,11.049382716049383,0)" xlink:href="#ak"/><use transform="matrix(0.06172839506172839,0,0,0.06172839506172839,15.925925925925926,0)" xlink:href="#ah"/></g><path fill="#3a414a" d="M185-189c-5-48-123-54-124 2 14 75 158 14 163 119 3 78-121 87-175 55-17-10-28-26-33-46l33-7c5 56 141 63 141-1 0-78-155-14-162-118-5-82 145-84 179-34 5 7 8 16 11 25" id="aq"/><g id="j"><use transform="matrix(0.06172839506172839,0,0,0.06172839506172839,0,0)" xlink:href="#aq"/><use transform="matrix(0.06172839506172839,0,0,0.06172839506172839,14.814814814814813,0)" xlink:href="#ad"/><use transform="matrix(0.06172839506172839,0,0,0.06172839506172839,27.160493827160494,0)" xlink:href="#al"/><use transform="matrix(0.06172839506172839,0,0,0.06172839506172839,32.03703703703704,0)" xlink:href="#an"/><use transform="matrix(0.06172839506172839,0,0,0.06172839506172839,38.20987654320988,0)" xlink:href="#ac"/></g><path fill="#3a414a" d="M108 0H70L1-190h34L89-25l56-165h34" id="ar"/><g id="k"><use transform="matrix(0.06172839506172839,0,0,0.06172839506172839,0,0)" xlink:href="#ah"/><use transform="matrix(0.06172839506172839,0,0,0.06172839506172839,12.345679012345679,0)" xlink:href="#ar"/><use transform="matrix(0.06172839506172839,0,0,0.06172839506172839,23.45679012345679,0)" xlink:href="#ah"/><use transform="matrix(0.06172839506172839,0,0,0.06172839506172839,35.80246913580247,0)" xlink:href="#ae"/><use transform="matrix(0.06172839506172839,0,0,0.06172839506172839,43.148148148148145,0)" xlink:href="#ao"/></g><path fill="#3a414a" d="M135-143c-3-34-86-38-87 0 15 53 115 12 119 90S17 21 10-45l28-5c4 36 97 45 98 0-10-56-113-15-118-90-4-57 82-63 122-42 12 7 21 19 24 35" id="as"/><g id="l"><use transform="matrix(0.06172839506172839,0,0,0.06172839506172839,0,0)" xlink:href="#ai"/><use transform="matrix(0.06172839506172839,0,0,0.06172839506172839,12.345679012345679,0)" xlink:href="#as"/><use transform="matrix(0.06172839506172839,0,0,0.06172839506172839,23.45679012345679,0)" xlink:href="#aj"/><use transform="matrix(0.06172839506172839,0,0,0.06172839506172839,34.5679012345679,0)" xlink:href="#al"/><use transform="matrix(0.06172839506172839,0,0,0.06172839506172839,39.44444444444444,0)" xlink:href="#al"/></g><g id="m"><use transform="matrix(0.06172839506172839,0,0,0.06172839506172839,0,0)" xlink:href="#ar"/><use transform="matrix(0.06172839506172839,0,0,0.06172839506172839,11.11111111111111,0)" xlink:href="#ai"/><use transform="matrix(0.06172839506172839,0,0,0.06172839506172839,23.45679012345679,0)" xlink:href="#ak"/><use transform="matrix(0.06172839506172839,0,0,0.06172839506172839,28.333333333333336,0)" xlink:href="#af"/><use transform="matrix(0.06172839506172839,0,0,0.06172839506172839,40.67901234567901,0)" xlink:href="#ah"/></g><path fill="#3a414a" d="M206 0h-36l-40-164L89 0H53L-1-190h32L70-26l43-164h34l41 164 42-164h31" id="at"/><g id="n"><use transform="matrix(0.06172839506172839,0,0,0.06172839506172839,0,0)" xlink:href="#ap"/><use transform="matrix(0.06172839506172839,0,0,0.06172839506172839,12.345679012345679,0)" xlink:href="#aa"/><use transform="matrix(0.06172839506172839,0,0,0.06172839506172839,24.691358024691358,0)" xlink:href="#at"/><use transform="matrix(0.06172839506172839,0,0,0.06172839506172839,40.67901234567901,0)" xlink:href="#am"/></g><path fill="#3a414a" d="M115-194c53 0 69 39 70 98 0 66-23 100-70 100C84 3 66-7 56-30L54 0H23l1-261h32v101c10-23 28-34 59-34zm-8 174c40 0 45-34 45-75 0-40-5-75-45-74-42 0-51 32-51 76 0 43 10 73 51 73" id="au"/><g id="o"><use transform="matrix(0.06172839506172839,0,0,0.06172839506172839,0,0)" xlink:href="#au"/><use transform="matrix(0.06172839506172839,0,0,0.06172839506172839,12.345679012345679,0)" xlink:href="#ao"/></g><path fill="#3a414a" d="M27 0v-27h64v-190l-56 39v-29l58-41h29v221h61V0H27" id="av"/><path fill="#3a414a" d="M110-160c48 1 74 30 74 79 0 53-28 85-80 85-65 0-83-55-86-122-5-90 50-162 133-122 14 7 22 21 27 39l-31 6c-5-40-67-38-82-6-9 19-15 44-15 74 11-20 30-34 60-33zm-7 138c34 0 49-23 49-58s-16-56-50-56c-29 0-50 16-49 49 1 36 15 65 50 65" id="aw"/><g id="p"><use transform="matrix(0.06172839506172839,0,0,0.06172839506172839,0,0)" xlink:href="#av"/><use transform="matrix(0.06172839506172839,0,0,0.06172839506172839,12.345679012345679,0)" xlink:href="#aw"/></g><path fill="#3a414a" d="M33 0v-248h34V0H33" id="ax"/><g id="q"><use transform="matrix(0.06172839506172839,0,0,0.06172839506172839,0,0)" xlink:href="#ax"/><use transform="matrix(0.06172839506172839,0,0,0.06172839506172839,6.172839506172839,0)" xlink:href="#as"/></g><g id="r"><use transform="matrix(0.06172839506172839,0,0,0.06172839506172839,0,0)" xlink:href="#al"/><use transform="matrix(0.06172839506172839,0,0,0.06172839506172839,4.876543209876543,0)" xlink:href="#ac"/></g><g id="s"><use transform="matrix(0.06172839506172839,0,0,0.06172839506172839,0,0)" xlink:href="#ac"/><use transform="matrix(0.06172839506172839,0,0,0.06172839506172839,6.172839506172839,0)" xlink:href="#aa"/><use transform="matrix(0.06172839506172839,0,0,0.06172839506172839,18.51851851851852,0)" xlink:href="#aa"/></g><path fill="#3a414a" d="M210-169c-67 3-38 105-44 169h-31v-121c0-29-5-50-35-48C34-165 62-65 56 0H25l-1-190h30c1 10-1 24 2 32 10-44 99-50 107 0 11-21 27-35 58-36 85-2 47 119 55 194h-31v-121c0-29-5-49-35-48" id="ay"/><path fill="#3a414a" d="M103-251c84 0 111 97 45 133-19 10-37 24-39 52H78c0-63 77-55 77-114 0-30-21-42-52-43-32 0-53 17-56 46l-32-2c7-45 34-72 88-72zM77 0v-35h34V0H77" id="az"/><g id="t"><use transform="matrix(0.06172839506172839,0,0,0.06172839506172839,0,0)" xlink:href="#as"/><use transform="matrix(0.06172839506172839,0,0,0.06172839506172839,11.11111111111111,0)" xlink:href="#ay"/><use transform="matrix(0.06172839506172839,0,0,0.06172839506172839,29.5679012345679,0)" xlink:href="#ai"/><use transform="matrix(0.06172839506172839,0,0,0.06172839506172839,41.913580246913575,0)" xlink:href="#ak"/><use transform="matrix(0.06172839506172839,0,0,0.06172839506172839,46.79012345679012,0)" xlink:href="#ak"/><use transform="matrix(0.06172839506172839,0,0,0.06172839506172839,51.666666666666664,0)" xlink:href="#az"/></g><g id="u"><use transform="matrix(0.06172839506172839,0,0,0.06172839506172839,0,0)" xlink:href="#af"/><use transform="matrix(0.06172839506172839,0,0,0.06172839506172839,12.345679012345679,0)" xlink:href="#ab"/></g><g id="v"><use transform="matrix(0.06172839506172839,0,0,0.06172839506172839,0,0)" xlink:href="#au"/><use transform="matrix(0.06172839506172839,0,0,0.06172839506172839,12.345679012345679,0)" xlink:href="#ao"/></g><path fill="#3a414a" d="M101-251c82-7 93 87 43 132L82-64C71-53 59-42 53-27h129V0H18c2-99 128-94 128-182 0-28-16-43-45-43s-46 15-49 41l-32-3c6-41 34-60 81-64" id="aA"/><g id="w"><use transform="matrix(0.06172839506172839,0,0,0.06172839506172839,0,0)" xlink:href="#av"/><use transform="matrix(0.06172839506172839,0,0,0.06172839506172839,10.679012345679013,0)" xlink:href="#av"/><use transform="matrix(0.06172839506172839,0,0,0.06172839506172839,23.02469135802469,0)" xlink:href="#aA"/></g><g id="x"><use transform="matrix(0.06172839506172839,0,0,0.06172839506172839,0,0)" xlink:href="#as"/><use transform="matrix(0.06172839506172839,0,0,0.06172839506172839,11.11111111111111,0)" xlink:href="#ab"/><use transform="matrix(0.06172839506172839,0,0,0.06172839506172839,23.45679012345679,0)" xlink:href="#ai"/><use transform="matrix(0.06172839506172839,0,0,0.06172839506172839,35.80246913580247,0)" xlink:href="#aj"/><use transform="matrix(0.06172839506172839,0,0,0.06172839506172839,46.91358024691358,0)" xlink:href="#ah"/><use transform="matrix(0.06172839506172839,0,0,0.06172839506172839,59.25925925925926,0)" xlink:href="#as"/></g><path fill="#333" d="M146-102V0H94v-102L6-248h54l60 105 60-105h54" id="aB"/><path fill="#333" d="M185-48c-13 30-37 53-82 52C43 2 14-33 14-96s30-98 90-98c62 0 83 45 84 108H66c0 31 8 55 39 56 18 0 30-7 34-22zm-45-69c5-46-57-63-70-21-2 6-4 13-4 21h74" id="aC"/><path fill="#333" d="M137-138c1-29-70-34-71-4 15 46 118 7 119 86 1 83-164 76-172 9l43-7c4 19 20 25 44 25 33 8 57-30 24-41C81-84 22-81 20-136c-2-80 154-74 161-7" id="aD"/><g id="y"><use transform="matrix(0.04938271604938272,0,0,0.04938271604938272,0,0)" xlink:href="#aB"/><use transform="matrix(0.04938271604938272,0,0,0.04938271604938272,10.864197530864198,0)" xlink:href="#aC"/><use transform="matrix(0.04938271604938272,0,0,0.04938271604938272,20.74074074074074,0)" xlink:href="#aD"/></g><path fill="#3a414a" d="M212-179c-10-28-35-45-73-45-59 0-87 40-87 99 0 60 29 101 89 101 43 0 62-24 78-52l27 14C228-24 195 4 139 4 59 4 22-46 18-125c-6-104 99-153 187-111 19 9 31 26 39 46" id="aE"/><g id="z"><use transform="matrix(0.06172839506172839,0,0,0.06172839506172839,0,0)" xlink:href="#aE"/><use transform="matrix(0.06172839506172839,0,0,0.06172839506172839,15.987654320987653,0)" xlink:href="#aa"/><use transform="matrix(0.06172839506172839,0,0,0.06172839506172839,28.333333333333332,0)" xlink:href="#am"/><use transform="matrix(0.06172839506172839,0,0,0.06172839506172839,40.67901234567901,0)" xlink:href="#ar"/><use transform="matrix(0.06172839506172839,0,0,0.06172839506172839,51.79012345679013,0)" xlink:href="#ah"/><use transform="matrix(0.06172839506172839,0,0,0.06172839506172839,64.13580246913581,0)" xlink:href="#ae"/><use transform="matrix(0.06172839506172839,0,0,0.06172839506172839,71.4814814814815,0)" xlink:href="#ac"/></g><g id="A"><use transform="matrix(0.06172839506172839,0,0,0.06172839506172839,0,0)" xlink:href="#ac"/><use transform="matrix(0.06172839506172839,0,0,0.06172839506172839,6.172839506172839,0)" xlink:href="#aa"/></g><path fill="#3a414a" d="M197 0v-115H63V0H30v-248h33v105h134v-105h34V0h-34" id="aF"/><path fill="#3a414a" d="M30 0v-248h187v28H63v79h144v27H63v87h162V0H30" id="aG"/><path fill="#3a414a" d="M195 0l-74-108L45 0H8l94-129-87-119h37l69 98 67-98h37l-84 118L233 0h-38" id="aH"/><g id="B"><use transform="matrix(0.06172839506172839,0,0,0.06172839506172839,0,0)" xlink:href="#aF"/><use transform="matrix(0.06172839506172839,0,0,0.06172839506172839,15.987654320987653,0)" xlink:href="#aG"/><use transform="matrix(0.06172839506172839,0,0,0.06172839506172839,30.80246913580247,0)" xlink:href="#aH"/></g><path fill="#333" d="M175 0L67-191c6 58 2 128 3 191H24v-248h59L193-55c-6-58-2-129-3-193h46V0h-61" id="aI"/><path fill="#333" d="M110-194c64 0 96 36 96 99 0 64-35 99-97 99-61 0-95-36-95-99 0-62 34-99 96-99zm-1 164c35 0 45-28 45-65 0-40-10-65-43-65-34 0-45 26-45 65 0 36 10 65 43 65" id="aJ"/><g id="C"><use transform="matrix(0.04938271604938272,0,0,0.04938271604938272,0,0)" xlink:href="#aI"/><use transform="matrix(0.04938271604938272,0,0,0.04938271604938272,12.790123456790125,0)" xlink:href="#aJ"/></g><path fill="#3a414a" d="M266 0h-40l-56-210L115 0H75L2-248h35L96-30l15-64 43-154h32l59 218 59-218h35" id="aK"/><g id="D"><use transform="matrix(0.06172839506172839,0,0,0.06172839506172839,0,0)" xlink:href="#aK"/><use transform="matrix(0.06172839506172839,0,0,0.06172839506172839,20.493827160493826,0)" xlink:href="#ae"/><use transform="matrix(0.06172839506172839,0,0,0.06172839506172839,27.839506172839506,0)" xlink:href="#al"/><use transform="matrix(0.06172839506172839,0,0,0.06172839506172839,32.71604938271605,0)" xlink:href="#ac"/><use transform="matrix(0.06172839506172839,0,0,0.06172839506172839,38.88888888888889,0)" xlink:href="#ah"/></g><g id="E"><use transform="matrix(0.06172839506172839,0,0,0.06172839506172839,0,0)" xlink:href="#aF"/><use transform="matrix(0.06172839506172839,0,0,0.06172839506172839,15.987654320987653,0)" xlink:href="#aG"/><use transform="matrix(0.06172839506172839,0,0,0.06172839506172839,30.80246913580247,0)" xlink:href="#aH"/></g><g id="F"><use transform="matrix(0.06172839506172839,0,0,0.06172839506172839,0,0)" xlink:href="#ar"/><use transform="matrix(0.06172839506172839,0,0,0.06172839506172839,11.11111111111111,0)" xlink:href="#ai"/><use transform="matrix(0.06172839506172839,0,0,0.06172839506172839,23.45679012345679,0)" xlink:href="#ak"/><use transform="matrix(0.06172839506172839,0,0,0.06172839506172839,28.333333333333336,0)" xlink:href="#af"/><use transform="matrix(0.06172839506172839,0,0,0.06172839506172839,40.67901234567901,0)" xlink:href="#ah"/></g><g id="G"><use transform="matrix(0.06172839506172839,0,0,0.06172839506172839,0,0)" xlink:href="#ai"/><use transform="matrix(0.06172839506172839,0,0,0.06172839506172839,12.345679012345679,0)" xlink:href="#as"/></g><g id="H"><use transform="matrix(0.06172839506172839,0,0,0.06172839506172839,0,0)" xlink:href="#ac"/><use transform="matrix(0.06172839506172839,0,0,0.06172839506172839,6.172839506172839,0)" xlink:href="#at"/><use transform="matrix(0.06172839506172839,0,0,0.06172839506172839,22.160493827160494,0)" xlink:href="#aa"/></g><g id="I"><use transform="matrix(0.06172839506172839,0,0,0.06172839506172839,0,0)" xlink:href="#aj"/><use transform="matrix(0.06172839506172839,0,0,0.06172839506172839,11.11111111111111,0)" xlink:href="#ad"/><use transform="matrix(0.06172839506172839,0,0,0.06172839506172839,23.45679012345679,0)" xlink:href="#ai"/><use transform="matrix(0.06172839506172839,0,0,0.06172839506172839,35.80246913580247,0)" xlink:href="#ae"/><use transform="matrix(0.06172839506172839,0,0,0.06172839506172839,43.148148148148145,0)" xlink:href="#ai"/><use transform="matrix(0.06172839506172839,0,0,0.06172839506172839,55.49382716049382,0)" xlink:href="#aj"/><use transform="matrix(0.06172839506172839,0,0,0.06172839506172839,66.60493827160494,0)" xlink:href="#ac"/><use transform="matrix(0.06172839506172839,0,0,0.06172839506172839,72.77777777777777,0)" xlink:href="#ah"/><use transform="matrix(0.06172839506172839,0,0,0.06172839506172839,85.12345679012346,0)" xlink:href="#ae"/><use transform="matrix(0.06172839506172839,0,0,0.06172839506172839,92.46913580246914,0)" xlink:href="#as"/></g><g id="J"><use transform="matrix(0.06172839506172839,0,0,0.06172839506172839,0,0)" xlink:href="#ac"/><use transform="matrix(0.06172839506172839,0,0,0.06172839506172839,6.172839506172839,0)" xlink:href="#aa"/></g><g id="K"><use transform="matrix(0.06172839506172839,0,0,0.06172839506172839,0,0)" xlink:href="#aa"/><use transform="matrix(0.06172839506172839,0,0,0.06172839506172839,12.345679012345679,0)" xlink:href="#af"/><use transform="matrix(0.06172839506172839,0,0,0.06172839506172839,24.691358024691358,0)" xlink:href="#ac"/><use transform="matrix(0.06172839506172839,0,0,0.06172839506172839,30.864197530864196,0)" xlink:href="#ab"/><use transform="matrix(0.06172839506172839,0,0,0.06172839506172839,43.20987654320987,0)" xlink:href="#af"/><use transform="matrix(0.06172839506172839,0,0,0.06172839506172839,55.55555555555555,0)" xlink:href="#ac"/></g><use transform="matrix(0.06172839506172839,0,0,0.06172839506172839,0,0)" xlink:href="#ai" id="L"/><g id="M"><use transform="matrix(0.06172839506172839,0,0,0.06172839506172839,0,0)" xlink:href="#am"/><use transform="matrix(0.06172839506172839,0,0,0.06172839506172839,12.345679012345679,0)" xlink:href="#ah"/><use transform="matrix(0.06172839506172839,0,0,0.06172839506172839,24.691358024691358,0)" xlink:href="#at"/></g><g id="N"><use transform="matrix(0.06172839506172839,0,0,0.06172839506172839,0,0)" xlink:href="#ax"/><use transform="matrix(0.06172839506172839,0,0,0.06172839506172839,6.172839506172839,0)" xlink:href="#as"/></g><g id="O"><use transform="matrix(0.06172839506172839,0,0,0.06172839506172839,0,0)" xlink:href="#ac"/><use transform="matrix(0.06172839506172839,0,0,0.06172839506172839,6.172839506172839,0)" xlink:href="#ad"/><use transform="matrix(0.06172839506172839,0,0,0.06172839506172839,18.51851851851852,0)" xlink:href="#ah"/><use transform="matrix(0.06172839506172839,0,0,0.06172839506172839,30.864197530864196,0)" xlink:href="#ae"/><use transform="matrix(0.06172839506172839,0,0,0.06172839506172839,38.20987654320987,0)" xlink:href="#ah"/></g><g id="P"><use transform="matrix(0.06172839506172839,0,0,0.06172839506172839,0,0)" xlink:href="#ac"/><use transform="matrix(0.06172839506172839,0,0,0.06172839506172839,6.172839506172839,0)" xlink:href="#ai"/><use transform="matrix(0.06172839506172839,0,0,0.06172839506172839,18.51851851851852,0)" xlink:href="#au"/></g><g id="Q"><use transform="matrix(0.06172839506172839,0,0,0.06172839506172839,0,0)" xlink:href="#aj"/><use transform="matrix(0.06172839506172839,0,0,0.06172839506172839,11.11111111111111,0)" xlink:href="#ad"/><use transform="matrix(0.06172839506172839,0,0,0.06172839506172839,23.45679012345679,0)" xlink:href="#ai"/><use transform="matrix(0.06172839506172839,0,0,0.06172839506172839,35.80246913580247,0)" xlink:href="#ae"/><use transform="matrix(0.06172839506172839,0,0,0.06172839506172839,43.148148148148145,0)" xlink:href="#ai"/><use transform="matrix(0.06172839506172839,0,0,0.06172839506172839,55.49382716049382,0)" xlink:href="#aj"/><use transform="matrix(0.06172839506172839,0,0,0.06172839506172839,66.60493827160494,0)" xlink:href="#ac"/><use transform="matrix(0.06172839506172839,0,0,0.06172839506172839,72.77777777777777,0)" xlink:href="#ah"/><use transform="matrix(0.06172839506172839,0,0,0.06172839506172839,85.12345679012346,0)" xlink:href="#ae"/><use transform="matrix(0.06172839506172839,0,0,0.06172839506172839,92.46913580246914,0)" xlink:href="#az"/></g><use transform="matrix(0.06172839506172839,0,0,0.06172839506172839,0,0)" xlink:href="#ai" id="R"/><g id="S"><use transform="matrix(0.06172839506172839,0,0,0.06172839506172839,0,0)" xlink:href="#am"/><use transform="matrix(0.06172839506172839,0,0,0.06172839506172839,12.345679012345679,0)" xlink:href="#ah"/><use transform="matrix(0.06172839506172839,0,0,0.06172839506172839,24.691358024691358,0)" xlink:href="#at"/></g><g id="T"><use transform="matrix(0.06172839506172839,0,0,0.06172839506172839,0,0)" xlink:href="#ak"/><use transform="matrix(0.06172839506172839,0,0,0.06172839506172839,4.876543209876543,0)" xlink:href="#al"/><use transform="matrix(0.06172839506172839,0,0,0.06172839506172839,9.753086419753085,0)" xlink:href="#am"/><use transform="matrix(0.06172839506172839,0,0,0.06172839506172839,22.098765432098766,0)" xlink:href="#ah"/><use transform="matrix(0.06172839506172839,0,0,0.06172839506172839,34.44444444444444,0)" xlink:href="#az"/></g><g id="U"><use transform="matrix(0.06172839506172839,0,0,0.06172839506172839,0,0)" xlink:href="#as"/><use transform="matrix(0.06172839506172839,0,0,0.06172839506172839,11.11111111111111,0)" xlink:href="#ac"/><use transform="matrix(0.06172839506172839,0,0,0.06172839506172839,17.28395061728395,0)" xlink:href="#ae"/><use transform="matrix(0.06172839506172839,0,0,0.06172839506172839,24.629629629629626,0)" xlink:href="#al"/><use transform="matrix(0.06172839506172839,0,0,0.06172839506172839,29.50617283950617,0)" xlink:href="#am"/><use transform="matrix(0.06172839506172839,0,0,0.06172839506172839,41.85185185185185,0)" xlink:href="#ag"/></g><path fill="#3a414a" d="M109-170H84l-4-78h32zm-65 0H19l-4-78h33" id="aL"/><path fill="#3a414a" d="M127-220V0H93v-220H8v-28h204v28h-85" id="aM"/><g id="V"><use transform="matrix(0.06172839506172839,0,0,0.06172839506172839,0,0)" xlink:href="#aL"/><use transform="matrix(0.06172839506172839,0,0,0.06172839506172839,7.8395061728395055,0)" xlink:href="#aM"/><use transform="matrix(0.06172839506172839,0,0,0.06172839506172839,21.358024691358022,0)" xlink:href="#aM"/><use transform="matrix(0.06172839506172839,0,0,0.06172839506172839,34.87654320987654,0)" xlink:href="#aL"/></g><g id="W"><use transform="matrix(0.06172839506172839,0,0,0.06172839506172839,0,0)" xlink:href="#ac"/><use transform="matrix(0.06172839506172839,0,0,0.06172839506172839,6.172839506172839,0)" xlink:href="#ad"/><use transform="matrix(0.06172839506172839,0,0,0.06172839506172839,18.51851851851852,0)" xlink:href="#ah"/></g><path fill="#3a414a" d="M205 0l-28-72H64L36 0H1l101-248h38L239 0h-34zm-38-99l-47-123c-12 45-31 82-46 123h93" id="aN"/><path fill="#3a414a" d="M16-82v-28h88v28H16" id="aO"/><g id="X"><use transform="matrix(0.06172839506172839,0,0,0.06172839506172839,0,0)" xlink:href="#aN"/><use transform="matrix(0.06172839506172839,0,0,0.06172839506172839,14.814814814814813,0)" xlink:href="#aO"/><use transform="matrix(0.06172839506172839,0,0,0.06172839506172839,22.160493827160494,0)" xlink:href="#av"/></g><g id="Y"><use transform="matrix(0.06172839506172839,0,0,0.06172839506172839,0,0)" xlink:href="#aE"/><use transform="matrix(0.06172839506172839,0,0,0.06172839506172839,15.987654320987653,0)" xlink:href="#aO"/><use transform="matrix(0.06172839506172839,0,0,0.06172839506172839,23.333333333333332,0)" xlink:href="#av"/></g></defs></g></svg>